<svg xmlns="http://www.w3.org/2000/svg" xmlns:xlink="http://www.w3.org/1999/xlink" width="268" height="78.462" viewBox="0 0 268 78.462">
  <defs>
    <clipPath id="clip-path">
      <rect id="長方形_912" data-name="長方形 912" width="268" height="78.462" fill="#fff"/>
    </clipPath>
  </defs>
  <g id="グループ_2259" data-name="グループ 2259" transform="translate(0 0)">
    <g id="グループ_2258" data-name="グループ 2258" transform="translate(0 0)" clip-path="url(#clip-path)">
      <path id="パス_24306" data-name="パス 24306" d="M70.578,76.54a1.247,1.247,0,0,1-.12-.721c0-.348.039-.523.12-.523a5.024,5.024,0,0,0,.984-.119,10.01,10.01,0,0,0,1.123-.3,1.1,1.1,0,0,0,.662-.422,12.437,12.437,0,0,0,.282-3.771V55.512q0-1.163-.06-2.047a6.441,6.441,0,0,0-.221-1.4q-.08-.241-.622-.442a7.642,7.642,0,0,0-1.163-.321,5.522,5.522,0,0,0-.984-.119q-.161,0-.161-.482a1.006,1.006,0,0,1,.161-.682l4.816.081c.4,0,.842-.007,1.324-.021s.99-.033,1.525-.06,1.043-.047,1.525-.061.909-.019,1.284-.019a9.519,9.519,0,0,1,2.689.4,10.047,10.047,0,0,1,2.608,1.2,5.844,5.844,0,0,1,2.067,2.288,7.305,7.305,0,0,1,.782,3.451,7.63,7.63,0,0,1-.521,2.648,8.92,8.92,0,0,1-1.545,2.629,7.779,7.779,0,0,1-2.569,1.986,7.927,7.927,0,0,1-3.551.761,3.647,3.647,0,0,1-3.09-1.122,1.1,1.1,0,0,1-.12-.925c.052-.132.093-.173.12-.119a7.976,7.976,0,0,0,2.689.441,4.158,4.158,0,0,0,2.467-.783,5.616,5.616,0,0,0,1.766-2.086,6.152,6.152,0,0,0,.663-2.83,7.39,7.39,0,0,0-1.244-4.515A4.5,4.5,0,0,0,80.41,51.7a10.61,10.61,0,0,0-2.809.282q-.362.04-.422,1.243t-.06,3.17V70.722a11.915,11.915,0,0,0,.321,3.491,1.538,1.538,0,0,0,.782.6,6.071,6.071,0,0,0,1.344.422,6.216,6.216,0,0,0,1.044.14c.106,0,.161.187.161.561a2.491,2.491,0,0,1-.081.6q-2.006-.08-3.311-.14t-1.9-.06Z" transform="translate(-9.966 -7.067)" fill="#fff"/>
      <path id="パス_24307" data-name="パス 24307" d="M119.957,76.62q-5.578,0-9.751-5.778-.321-.44-.822-1.2t-1.826-2.689q-.643-.923-1.143-1.546a3.4,3.4,0,0,0-1.163-.943,4.132,4.132,0,0,0-1.786-.321,1.691,1.691,0,0,0-.7.121q-.261.12-.261.561v5.9a11.906,11.906,0,0,0,.321,3.491,1.541,1.541,0,0,0,.783.6,6.031,6.031,0,0,0,1.343.422,6.168,6.168,0,0,0,1.045.141q.16,0,.16.561a2.578,2.578,0,0,1-.079.6q-2.008-.081-3.312-.16a16.547,16.547,0,0,0-1.906-.04l-4.9.2a1.263,1.263,0,0,1-.12-.721c0-.349.041-.523.12-.523a4.961,4.961,0,0,0,.984-.12,9.843,9.843,0,0,0,1.124-.3,1.114,1.114,0,0,0,.663-.422,12.535,12.535,0,0,0,.28-3.772V55.512c0-.774-.019-1.458-.06-2.046a6.447,6.447,0,0,0-.22-1.4c-.055-.161-.261-.307-.622-.442a7.433,7.433,0,0,0-1.164-.321,5.45,5.45,0,0,0-.984-.12c-.106,0-.161-.161-.161-.482a1.016,1.016,0,0,1,.161-.682l4.816.081q1.163.04,2.849-.062t2.81-.1a10.515,10.515,0,0,1,4.152.842,7.923,7.923,0,0,1,3.252,2.489,6.393,6.393,0,0,1,1.264,4.012,6.3,6.3,0,0,1-1.264,3.531,8.268,8.268,0,0,1-3.432,2.849c-.267.106-.348.24-.24.4a28.067,28.067,0,0,0,4.614,7.063q3.853,4.212,6.26,4.213a1.23,1.23,0,0,1,.12.562,1.321,1.321,0,0,1-.12.6,3.918,3.918,0,0,1-1.083.119M105.993,62.415h1a3.735,3.735,0,0,0,1.987-.642,5.33,5.33,0,0,0,1.726-1.805,5.113,5.113,0,0,0,.7-2.689q0-5.578-5.619-5.579a10.639,10.639,0,0,0-2.808.282q-.362.081-.422,1.3t-.06,3.11v4.856q0,1.164,3.492,1.163" transform="translate(-13.559 -7.067)" fill="#fff"/>
      <path id="パス_24308" data-name="パス 24308" d="M126.813,77.616a.853.853,0,0,1-.161-.6q0-.561.161-.561a6.155,6.155,0,0,0,.963-.1,5.643,5.643,0,0,0,1.124-.3c.348-.134.549-.266.6-.4a7.083,7.083,0,0,0,.221-1.444q.061-.883.06-2.128V63.118q0-1.241-.06-2.147a6.463,6.463,0,0,0-.221-1.424q-.08-.241-.6-.421a8.553,8.553,0,0,0-1.124-.3,5.266,5.266,0,0,0-.963-.119q-.161,0-.161-.521a.927.927,0,0,1,.161-.642l4.816.2q.321,0,1.484-.06t3.17-.14a2.453,2.453,0,0,1,.081.6c0,.375-.054.562-.161.562a4.455,4.455,0,0,0-.843.14q-.6.142-1.124.321c-.348.121-.549.249-.6.381a15.243,15.243,0,0,0-.361,3.733v8.639a15.534,15.534,0,0,0,.361,3.733c.053.106.254.228.6.361a6.843,6.843,0,0,0,1.124.321,5.016,5.016,0,0,0,.843.12c.106,0,.161.2.161.6a2.315,2.315,0,0,1-.081.561q-2.006-.08-3.17-.14t-1.484-.06Z" transform="translate(-17.926 -8.144)" fill="#fff"/>
      <path id="パス_24309" data-name="パス 24309" d="M141.157,76.526a.81.81,0,0,1-.2-.6c0-.374.066-.561.2-.561a5.88,5.88,0,0,0,1.043-.12,9.333,9.333,0,0,0,1.244-.321,2.186,2.186,0,0,0,.842-.442q.682-.722.723-3.491.08-4.654.181-8.367t.18-6.1q.08-2.387.08-3.07a5.913,5.913,0,0,0-.161-1.605q-.081-.241-.7-.421a11.746,11.746,0,0,0-1.344-.3,7.474,7.474,0,0,0-1.125-.119c-.106,0-.161-.188-.161-.562a.857.857,0,0,1,.161-.6q.964.041,2.127.12c.776.055,1.565.08,2.368.08q.762,0,1.665-.059c.6-.041,1.277-.087,2.026-.141q.322.883,7.946,20.105a.232.232,0,0,0,.161.08.189.189,0,0,0,.2-.161q1.965-4.614,3.531-8.428t2.729-6.781l1.605-4.816q1.284.081,2.107.12t1.224.04q1.243,0,2.368-.04t2.127-.12a1.994,1.994,0,0,1,.12.6c0,.374-.068.562-.2.562h-.08a3.6,3.6,0,0,0-1.164.261,4.037,4.037,0,0,0-1.083.542q-.482.361-.482,2.689l.361,16.292a11.718,11.718,0,0,0,.6,3.691,1.159,1.159,0,0,0,.642.442,6.7,6.7,0,0,0,1.144.321,5.329,5.329,0,0,0,.9.12q.161,0,.161.561a2.488,2.488,0,0,1-.08.6q-2.008-.08-3.19-.14t-1.586-.06l-4.815.2a.926.926,0,0,1-.161-.641q0-.522.161-.522a5.734,5.734,0,0,0,1.224-.2,5.149,5.149,0,0,0,1.184-.4q.482-.321.482-1.726V70.909l-.482-14.125a5.529,5.529,0,0,0-.1-.984q-.1-.541-.221-.962c-.081-.282-.174-.422-.282-.422-.053,0-.12.094-.2.281l-8.387,20.065q-.764,1.727-1.485,1.726a3.228,3.228,0,0,1-.361-.081l-9.19-23.355q-.121,5.658-.282,10.094t-.26,7.123q-.1,2.687-.1,3.13a1.762,1.762,0,0,0,.24,1.043,1.918,1.918,0,0,0,.8.422,10.445,10.445,0,0,0,1.344.361,6,6,0,0,0,.943.14c.106,0,.161.2.161.6a2.315,2.315,0,0,1-.081.561q-2.006-.08-3.17-.14t-1.484-.06Z" transform="translate(-19.95 -7.054)" fill="#fff"/>
      <path id="パス_24310" data-name="パス 24310" d="M202.335,76.553q-1,0-2.629-.021t-3.832-.06q-2.208-.04-4.012-.059t-3.211-.021l-4.855.119a1.038,1.038,0,0,1-.12-.64c0-.348.039-.523.12-.523a4.415,4.415,0,0,0,.962-.14,8.978,8.978,0,0,0,1.143-.342,1.171,1.171,0,0,0,.663-.44,12.487,12.487,0,0,0,.281-3.772V55.485q0-1.162-.06-2.047a6.491,6.491,0,0,0-.221-1.4q-.081-.241-.622-.442a7.45,7.45,0,0,0-1.163-.321,5.459,5.459,0,0,0-.983-.12c-.108,0-.161-.161-.161-.482a1,1,0,0,1,.161-.682q1.043.04,2.227.06t2.548.02q.923,0,2.489-.04t3.772-.12q2.247-.08,3.912-.121t2.789-.039q.08.563.24,1.344t.4,1.7q.2.963.341,1.565t.181.844a1.017,1.017,0,0,1-.723.2q-.522,0-.561-.281a4.461,4.461,0,0,0-1.685-2.829,5.974,5.974,0,0,0-2.97-.623h-2.689q-3.491,0-3.531.523c-.054.321-.1.761-.141,1.324s-.06,1.244-.06,2.047v6.42q0,.241,1.726.241h2.127q1.364,0,1.846-.021a2.507,2.507,0,0,0,.7-.1q.22-.08.863-.24.4-.081.622-.943c.146-.576.274-1.05.38-1.424.027-.187.227-.282.6-.282a.947.947,0,0,1,.682.2V67a.929.929,0,0,1-.642.161c-.348,0-.562-.107-.643-.321q-.16-.561-.281-.963c-.08-.268-.147-.494-.2-.683a1.978,1.978,0,0,0-.3-.64c-.067-.054-.18-.134-.341-.241a14.319,14.319,0,0,0-4.254-.321q-2.89,0-2.89.361v6.221a12.582,12.582,0,0,0,.361,3.65q.12.4,2.728.4h1.926a12.7,12.7,0,0,0,5.056-.682,4.349,4.349,0,0,0,1.344-1.425,9.332,9.332,0,0,0,1.184-2.629c.053-.161.241-.241.562-.241a1.472,1.472,0,0,1,1,.241c-.08.214-.208.542-.381.984s-.342.889-.5,1.344-.294.842-.4,1.163q-.241.722-.522,1.645a9.995,9.995,0,0,0-.361,1.525" transform="translate(-25.991 -7.041)" fill="#fff"/>
      <path id="パス_24311" data-name="パス 24311" d="M221.753,76.526a.852.852,0,0,1-.161-.6q0-.561.161-.561a6.155,6.155,0,0,0,.963-.1,5.643,5.643,0,0,0,1.124-.3c.348-.134.549-.266.6-.4a7.083,7.083,0,0,0,.221-1.444q.06-.883.06-2.128V55.418q0-1.243-.06-2.147a6.462,6.462,0,0,0-.221-1.424q-.08-.241-.6-.421a8.554,8.554,0,0,0-1.124-.3,5.267,5.267,0,0,0-.963-.119c-.107,0-.161-.173-.161-.522a.928.928,0,0,1,.161-.642q.362,0,1.224.06c.575.039,1.2.081,1.865.12s1.245.061,1.726.061q1.284,0,2.569-.1t2.086-.141a1.589,1.589,0,0,1,.06.662q-.021.5-.14.5a4.382,4.382,0,0,0-.843.14,11.491,11.491,0,0,0-1.124.321q-.522.182-.6.381a15.235,15.235,0,0,0-.361,3.732v6.542l.282.24h.281A3.082,3.082,0,0,0,231.1,61.2q2.367-2.608,4.073-4.655t2.829-3.491a3.82,3.82,0,0,0,.963-1.525q0-.681-2.287-.682-.161,0-.161-.361a2.423,2.423,0,0,1,.02-.341,2.925,2.925,0,0,1,.06-.3l2.327.161q1.164.081,1.967.081.681,0,1.5-.061c.548-.039,1.057-.081,1.525-.12s.81-.06,1.023-.06a1.329,1.329,0,0,1,.061.581c-.015.282-.061.422-.141.422a5.692,5.692,0,0,0-3.692,1.685l-8.066,9.39q-.321.362.281,1.083l9.671,10.635a5.142,5.142,0,0,0,2.047,1.284,6.7,6.7,0,0,0,2.207.441q.2,0,.2.722a1.386,1.386,0,0,1-.081.441q-2.006-.08-3.25-.14t-1.726-.06q-1.686,0-3.03.06t-2.388.14a1.011,1.011,0,0,1-.161-.682c0-.321.054-.482.161-.482a4.509,4.509,0,0,0,1.1-.161q.622-.158.622-.482,0-1.283-9.109-10.634a2.256,2.256,0,0,0-1.163-.161q-.282,0-.282.321v6.58a15.534,15.534,0,0,0,.361,3.733c.053.106.254.227.6.361a6.818,6.818,0,0,0,1.124.321,5.014,5.014,0,0,0,.843.12q.12,0,.14.482a1.8,1.8,0,0,1-.06.682q-2.006-.08-3.17-.14t-1.484-.06Z" transform="translate(-31.363 -7.054)" fill="#fff"/>
      <path id="パス_24312" data-name="パス 24312" d="M253.167,76.52a.844.844,0,0,1-.161-.6c0-.375.052-.562.161-.562a5.109,5.109,0,0,0,1.244-.2,1.912,1.912,0,0,0,1.043-.561,8.9,8.9,0,0,0,.9-1.485q.461-.923.983-2.289l6.983-17.937a7.687,7.687,0,0,0,.3-.842q.06-.241.121-.422c.039-.119.126-.327.26-.622a4.242,4.242,0,0,1,.562-.883,1.17,1.17,0,0,1,.923-.321l.361.121L274.876,71.1q.362.922.662,1.645c.2.482.367.9.5,1.243a1.472,1.472,0,0,0,.7.7,5.885,5.885,0,0,0,1.123.48,3.277,3.277,0,0,0,.9.181c.106,0,.16.255.16.763a.956.956,0,0,1-.02.18,1.894,1.894,0,0,1-.06.22q-2.007-.08-3.11-.14t-1.3-.06l-4.655.2a.912.912,0,0,1-.141-.661c.014-.334.074-.5.181-.5a4.653,4.653,0,0,0,1.2-.2q.722-.2.843-.522a2.932,2.932,0,0,0,.06-.321,2.661,2.661,0,0,0,.021-.322,7.318,7.318,0,0,0-.121-1.222,5.685,5.685,0,0,0-.281-1.1l-1.805-4.976a.323.323,0,0,0-.241-.161q-1.565-.121-3.05-.121-1.043,0-2.308.061t-2.788.14l-.2.12-1.726,4.414a10.294,10.294,0,0,0-.542,1.685,5.7,5.7,0,0,0-.14,1.083.934.934,0,0,0,.321.8,3,3,0,0,0,1.163.461,5.988,5.988,0,0,0,1.164.181q.12,0,.14.482a1.816,1.816,0,0,1-.06.682l-4.134-.2a13.345,13.345,0,0,0-2.187.021q-1.064.1-1.986.179m11.878-12.037q1.807,0,3.652-.121l.12-.2-3.25-8.869-3.451,8.949c0,.107.027.161.08.161q1.043.041,1.746.06c.468.015.835.021,1.1.021" transform="translate(-35.809 -7.047)" fill="#fff"/>
      <path id="パス_24313" data-name="パス 24313" d="M282.172,85.516a3.281,3.281,0,0,1-.962-.161,5.678,5.678,0,0,1-.843-.321l-.282-.161a2.2,2.2,0,0,1-.482-1.484,1.737,1.737,0,0,1,.743-1.446,2.81,2.81,0,0,1,1.744-.561,2.574,2.574,0,0,1,1.646.883,2.615,2.615,0,0,0,1.4.842q1.123,0,2.288-2.207a11.277,11.277,0,0,0,.923-3.07,25.43,25.43,0,0,0,.361-4.515v-17.9q0-1.241-.06-2.147a6.5,6.5,0,0,0-.221-1.424q-.08-.241-.6-.421a8.539,8.539,0,0,0-1.123-.3,5.283,5.283,0,0,0-.963-.119q-.161,0-.16-.521a.931.931,0,0,1,.16-.643q.361,0,1.223.06c.575.039,1.2.081,1.866.12s1.244.061,1.726.061q1.284,0,2.569-.1t2.087-.141a2.548,2.548,0,0,1,.08.6c0,.374-.054.562-.16.562a4.463,4.463,0,0,0-.843.14,11.471,11.471,0,0,0-1.123.321q-.523.182-.6.381a15.2,15.2,0,0,0-.361,3.732V73a15.325,15.325,0,0,1-.743,4.8,13.05,13.05,0,0,1-2.087,3.992,10.176,10.176,0,0,1-3.19,2.73,8.282,8.282,0,0,1-4.013,1" transform="translate(-39.573 -7.054)" fill="#fff"/>
      <path id="パス_24314" data-name="パス 24314" d="M301.033,77.971a.853.853,0,0,1-.161-.6q0-.561.161-.561a6.154,6.154,0,0,0,.963-.1,5.642,5.642,0,0,0,1.124-.3c.348-.134.549-.266.6-.4a7.086,7.086,0,0,0,.221-1.444q.06-.883.06-2.128V65.628q0-1.241-.06-2.147a6.466,6.466,0,0,0-.221-1.424q-.08-.241-.6-.421a8.553,8.553,0,0,0-1.124-.3,5.265,5.265,0,0,0-.963-.119q-.161,0-.161-.521a.927.927,0,0,1,.161-.642l4.816.2q.321,0,1.484-.06t3.17-.14a2.453,2.453,0,0,1,.081.6c0,.375-.054.562-.161.562a4.453,4.453,0,0,0-.843.14q-.6.142-1.124.321c-.348.121-.549.249-.6.381a15.24,15.24,0,0,0-.361,3.732v6.485a15.534,15.534,0,0,0,.361,3.733c.053.106.254.228.6.361a6.847,6.847,0,0,0,1.124.321,5.016,5.016,0,0,0,.843.12c.106,0,.161.2.161.6a2.315,2.315,0,0,1-.081.561q-2.006-.08-3.17-.14t-1.484-.06Z" transform="translate(-42.583 -8.499)" fill="#fff"/>
      <rect id="長方形_908" data-name="長方形 908" width="7.449" height="7.449" transform="translate(246.077 32.667) rotate(-45)" fill="#fff"/>
      <rect id="長方形_909" data-name="長方形 909" width="5.994" height="5.994" transform="matrix(0.707, -0.707, 0.707, 0.707, 258.686, 43.434)" fill="#fff"/>
      <rect id="長方形_910" data-name="長方形 910" width="3.82" height="3.82" transform="translate(262.471 30.415) rotate(-45)" fill="#fff"/>
      <rect id="長方形_911" data-name="長方形 911" width="4.833" height="5.057" transform="translate(111.069 42.154)" fill="#fff"/>
      <path id="パス_24315" data-name="パス 24315" d="M85.717,35.186a1.676,1.676,0,0,0-1.3.87,11.743,11.743,0,0,1-5.592-7.919,18.832,18.832,0,0,1-1.694,1.077,6.651,6.651,0,0,1,2.676,5.226c0,1.948-.633,2.962-2.28,3.072-.111-.617-.555-1-1.52-1.252l.033-.285a10.765,10.765,0,0,0,1.536.127c.681,0,1.029-.38,1.029-1.742,0-.253-.015-.523-.032-.776a20.128,20.128,0,0,1-7.127,2.66l-.111-.253a21.86,21.86,0,0,0,7-3.627,9.591,9.591,0,0,0-.38-1.077,19.441,19.441,0,0,1-6.3,2.3l-.111-.269a17.214,17.214,0,0,0,5.86-3.025,8.95,8.95,0,0,0-.682-.856,22.644,22.644,0,0,1-4.846,1.837l-.143-.252a18.726,18.726,0,0,0,5.829-3.358H75.138l-1.6.08v-.65l1.6.079H80.95c.317-.4.57-.681.887-1.029,1.41,1,1.536,1.188,1.536,1.331,0,.111-.079.19-.237.19H79.524a.427.427,0,0,1-.332.318,10.8,10.8,0,0,0,.538,1.33,11.434,11.434,0,0,0,.84,1.473,13.422,13.422,0,0,0,2.914-2.629c1.267.823,1.377.966,1.377,1.156,0,.173-.205.3-.792.238a17.9,17.9,0,0,1-3.215,1.631,10.894,10.894,0,0,0,4.91,3.706Zm-7.935-10.31v-.4c0-.84-.015-1.156-.047-1.663,1.583.143,1.932.285,1.932.459s-.112.3-.618.476v1.124h4.419c.317-.633.46-.713.634-.713s.333.048.888.506c.459.4.538.555.538.744,0,.174-.175.349-.823.459a12.806,12.806,0,0,1-1.315.95l-.221-.174a12.036,12.036,0,0,0,.4-1.283h-10.2a2.275,2.275,0,0,1,.016.332c0,1.156-.634,1.679-1.235,1.679a.636.636,0,0,1-.682-.617,1.011,1.011,0,0,1,.476-.808,1.828,1.828,0,0,0,.807-1.822l.27-.047a3.327,3.327,0,0,1,.269.792Z" transform="translate(-10.097 -3.229)" fill="#fff"/>
      <path id="パス_24316" data-name="パス 24316" d="M92.083,34.594l-1.52.079v-.65l1.52.08H96.3v-1.41H91.085l-1.6.079v-.649l1.6.079H96.3V30.809H91.972l-1.52.079v-.65l1.52.08H96.3V29.083H93.477v.111c0,.333-.38.554-.9.554-.238,0-.317-.094-.317-.3,0-.27.064-.934.064-2.2,0-.539,0-.824-.032-1.251a9.807,9.807,0,0,1,1.378.475H96.3V25.392H91.5l-1.584.08v-.65L91.5,24.9h4.8c-.016-.965-.032-1.536-.064-2.011,1.631.159,1.869.27,1.869.444,0,.159-.127.3-.634.491V24.9h4.023a13.646,13.646,0,0,1,.919-1.124c1.472,1.045,1.662,1.3,1.662,1.425,0,.111-.094.19-.253.19H97.467V26.47H100.4c.237-.428.332-.475.475-.475.158,0,.253.032.713.364s.491.443.491.57c0,.158-.158.285-.491.491v.237c0,.7.048,1.077.048,1.379,0,.269-.349.475-.856.475-.253,0-.349-.1-.349-.285v-.143H97.483v1.235h3.436c.222-.523.349-.634.507-.634.142,0,.3.047.76.4.412.332.507.491.507.634,0,.127-.1.253-.491.459V32.2h.269c.222-.317.476-.664.729-1,1.141.966,1.251,1.188,1.251,1.3s-.094.191-.253.191h-2c.015,1.33.078,2.075.078,2.439,0,.317-.442.539-.949.539-.221,0-.333-.1-.333-.3v-.776H97.532c.015.855.032,1.346.032,1.663,0,.823-.666,1.41-1.9,1.41-.126-.681-.443-.95-1.663-1.251l.032-.3c.507.047,1.046.1,1.663.1.491,0,.6-.079.6-.586V34.594ZM96.3,26.96H93.65l-.173.206v1.426H96.3Zm1.171,1.632h2.962V26.96H97.467Zm.016,2.217c0,.458,0,.934.015,1.393H101V30.809Zm.015,1.884c.016.476.016.935.033,1.41H101v-1.41Z" transform="translate(-12.665 -3.24)" fill="#fff"/>
      <path id="パス_24317" data-name="パス 24317" d="M107.764,31.7a31.642,31.642,0,0,0,3.041-8.346c1.679.4,1.869.538,1.869.7s-.143.317-.665.427a22.809,22.809,0,0,1-1.156,2.883c.555.143.713.238.713.364,0,.143-.111.254-.459.412v1.711c0,4.814.048,6.493.048,7.158,0,.285-.459.555-1.014.555-.237,0-.349-.111-.349-.3,0-.6.1-2.281.1-7.428v-.665a20.2,20.2,0,0,1-1.869,2.692Zm12.274-4.387c.269-.412.491-.792.839-1.235,1.695,1.029,1.742,1.14,1.758,1.267,0,.111-.079.19-.238.206l-5.749.617a14.446,14.446,0,0,0,.476,2.138,9.166,9.166,0,0,0,2.8,4.561c.57.46.808.587,1.077.587.222,0,.491-.191,1.22-1.838l.269.08a13.361,13.361,0,0,0-.411,2.043c0,.395.349.443.349.886a.62.62,0,0,1-.7.6,3.717,3.717,0,0,1-2.122-.809,10.6,10.6,0,0,1-3.706-5.7,17.428,17.428,0,0,1-.506-2.407l-2.075.221-1.393.221-.064-.648,1.41-.064,2.043-.221c-.159-1.235-.285-2.725-.349-4.483,1.694.175,1.932.27,1.932.476,0,.173-.126.285-.586.427a28.441,28.441,0,0,0,.269,3.454ZM117.345,24.3c1.552.142,2.518.855,2.518,1.631a.632.632,0,0,1-.649.681.688.688,0,0,1-.649-.506,3.369,3.369,0,0,0-1.362-1.552Z" transform="translate(-15.252 -3.302)" fill="#fff"/>
      <path id="パス_24318" data-name="パス 24318" d="M126.392,31.931a20.926,20.926,0,0,0,3.77-5.622c1.362.586,1.52.729,1.52.935,0,.173-.19.285-.665.317a14.15,14.15,0,0,1-1.267,1.742c.555.158.682.254.682.38s-.112.237-.459.412v1.362c0,3.627.063,5,.063,5.606,0,.27-.523.523-1.045.523-.238,0-.332-.094-.332-.269,0-.6.094-2.107.094-5.876v-1.06a15.431,15.431,0,0,1-2.169,1.774Zm.285-5.211a15.439,15.439,0,0,0,3.738-3.848c1.187.713,1.425.934,1.425,1.14,0,.191-.221.317-.713.285a15.37,15.37,0,0,1-4.275,2.678ZM138.429,29a.441.441,0,0,1-.285.4v1.029c0,3.959.063,4.846.063,5.464,0,.9-.76,1.441-2.042,1.441-.1-.728-.428-1.093-1.5-1.346l.033-.3a12.431,12.431,0,0,0,1.615.111c.428,0,.554-.127.554-.523V29h-3.927l-1.537.079v-.65l1.537.08h5.654a13.389,13.389,0,0,1,1.013-1.2c1.52,1.155,1.631,1.346,1.631,1.5,0,.111-.094.191-.253.191Zm-.808-4.641c.317-.4.6-.744,1-1.172,1.489,1.156,1.568,1.314,1.568,1.472,0,.112-.094.191-.253.191H134.01l-1.52.079v-.649l1.52.079Z" transform="translate(-17.889 -3.237)" fill="#fff"/>
      <path id="パス_24319" data-name="パス 24319" d="M159.619,36.367a15.4,15.4,0,0,0,8.386-9.338.176.176,0,0,0-.186-.254c-.2,0-.407.016-1.086.068-1.343.12-3.057.339-4.974.68a4.283,4.283,0,0,0-.8.186.975.975,0,0,1-.424.1,1.627,1.627,0,0,1-.985-.646,2.371,2.371,0,0,1-.577-1.2l.27-.136a1.782,1.782,0,0,0,1.614.576c.644-.016,1.578-.066,2.359-.134,1.325-.085,2.836-.221,4.261-.374a1.175,1.175,0,0,0,.848-.322.731.731,0,0,1,.409-.2,1.9,1.9,0,0,1,.849.475c.508.407.712.628.712.884,0,.153-.2.339-.426.457a1.268,1.268,0,0,0-.593.68c-2.429,5.484-5.519,7.673-9.472,8.88Zm13.292-12.6a1.621,1.621,0,1,1-1.63-1.628,1.624,1.624,0,0,1,1.63,1.628m-2.648,0a1.028,1.028,0,1,0,2.055,0,1.028,1.028,0,0,0-2.055,0" transform="translate(-22.5 -3.134)" fill="#fff"/>
      <path id="パス_24320" data-name="パス 24320" d="M178.66,37.008a17.424,17.424,0,0,0,7.928-8.913c-2.359.185-4.464.391-5.976.611a3.807,3.807,0,0,0-1.2.254.878.878,0,0,1-.407.153,1.356,1.356,0,0,1-.748-.425,2.845,2.845,0,0,1-.612-.831,3,3,0,0,1-.2-.51l.257-.153a2.007,2.007,0,0,0,1.307.578c.661-.018,1.086-.052,1.477-.068,1.545-.1,3.53-.238,5.059-.373a2.059,2.059,0,0,0,1.155-.306.793.793,0,0,1,.458-.237c.186,0,.355.1.849.508.457.392.729.7.729.936,0,.185-.153.338-.441.475a1.251,1.251,0,0,0-.612.56c-2.07,3.94-4.617,6.637-8.81,8.114Zm.663-12.767a2.342,2.342,0,0,0,1.714.492c.781-.017,2.375-.17,3.65-.339a2.686,2.686,0,0,0,.917-.221,1.427,1.427,0,0,1,.476-.136c.611,0,1.272.373,1.272.764,0,.273-.118.476-.814.527-1.766.084-3.328.221-4.636.322-.39.052-.865.1-1.053.119a2.43,2.43,0,0,1-.457.085,1.7,1.7,0,0,1-.867-.663,2.158,2.158,0,0,1-.407-.781Z" transform="translate(-25.113 -3.402)" fill="#fff"/>
      <path id="パス_24321" data-name="パス 24321" d="M193.314,33.328a33.588,33.588,0,0,0,5.6-4.821,27.534,27.534,0,0,0,2.8-3.379.847.847,0,0,0,.188-.476c0-.153-.221-.407-.9-.56l.017-.322a6.942,6.942,0,0,1,.8-.069,1.68,1.68,0,0,1,.646.1c.661.2,1.426.816,1.426,1.206a.446.446,0,0,1-.323.458c-.2.085-.357.186-.729.645-.7.8-1.172,1.325-1.936,2.089.543.339.661.56.661.814,0,.136-.05.494-.05.986,0,.628,0,1.714.017,2.853,0,1.392.033,2.8.033,3.461,0,.8-.221,1.037-.644,1.037s-.849-.578-.849-1.545a3.5,3.5,0,0,1,.084-.628,6.116,6.116,0,0,0,.085-1.155q.053-1.785.052-4.431a1.763,1.763,0,0,0-.1-.7,26.466,26.466,0,0,1-6.654,4.77Z" transform="translate(-27.36 -3.354)" fill="#fff"/>
      <path id="パス_24322" data-name="パス 24322" d="M218,30.154a8.221,8.221,0,0,1,3.276,2.8,3.481,3.481,0,0,1,.646,1.679c.017.663-.306,1.037-.78,1.037-.391,0-.595-.238-.7-.663-.12-.339-.273-.748-.442-1.223-2.8.51-5.127.934-7.674,1.409a5.855,5.855,0,0,0-.865.24,1.131,1.131,0,0,1-.407.1,1.918,1.918,0,0,1-1.019-.731,1.84,1.84,0,0,1-.39-1.2l.254-.1a1.026,1.026,0,0,0,1,.44c.39,0,.712,0,1.052-.033a70.642,70.642,0,0,0,2.563-6.741,4.538,4.538,0,0,0,.237-1.018.41.41,0,0,0-.2-.407,1.381,1.381,0,0,0-.628-.256v-.355a4.082,4.082,0,0,1,.933-.1c.577,0,1.936.832,1.936,1.274,0,.238-.068.323-.289.508a2.627,2.627,0,0,0-.595.868c-.882,1.816-2.02,4.193-3.072,6.195,2.138-.186,4.278-.407,6.893-.73a8.7,8.7,0,0,0-1.971-2.665Z" transform="translate(-29.672 -3.542)" fill="#fff"/>
      <path id="パス_24323" data-name="パス 24323" d="M231.12,24.543a2.8,2.8,0,0,1,1.018-.306,2.205,2.205,0,0,1,1.1.373c.459.288.748.593.748.831,0,.153-.067.256-.237.407a.982.982,0,0,0-.255.494c-.118.543-.221.95-.324,1.494,1.121-.069,1.955-.17,2.9-.254a.886.886,0,0,0,.612-.221.518.518,0,0,1,.391-.221,2,2,0,0,1,.864.543c.423.357.6.611.6.8,0,.136-.035.273-.289.409a.535.535,0,0,0-.322.475,32.948,32.948,0,0,1-1.123,5.416,2.348,2.348,0,0,1-.95,1.289,1.823,1.823,0,0,1-.966.425c-.289,0-.41-.119-.477-.425a.88.88,0,0,0-.44-.577,7.22,7.22,0,0,0-1-.51l.118-.355a7.112,7.112,0,0,0,1.58.238.906.906,0,0,0,.966-.781,22.665,22.665,0,0,0,1.138-5.569c.016-.085-.051-.136-.136-.136-1.139.052-2.1.136-3.617.306a14.667,14.667,0,0,1-1.732,4.38,8.718,8.718,0,0,1-4.516,3.565l-.185-.355a10.419,10.419,0,0,0,3.394-3.175,13.825,13.825,0,0,0,1.75-4.294,18.033,18.033,0,0,0-2.208.3,2.4,2.4,0,0,0-.713.188.92.92,0,0,1-.374.1c-.185.016-.49-.186-.761-.527a2.435,2.435,0,0,1-.594-1.136l.253-.136a1.6,1.6,0,0,0,1.256.543c.612.016,1.715-.069,3.312-.2a15.423,15.423,0,0,0,.288-2.529c0-.153-.016-.272-.12-.341a2.832,2.832,0,0,0-.916-.219Z" transform="translate(-32.07 -3.43)" fill="#fff"/>
      <path id="パス_24324" data-name="パス 24324" d="M244.062,28.646a5.3,5.3,0,0,1,1.919.476c.814.409,1.155.816,1.155,1.477a.779.779,0,0,1-.764.8c-.256,0-.494-.119-.748-.646a3.807,3.807,0,0,0-1.7-1.764Zm12.495-.746a30.328,30.328,0,0,1-8.64,8,1.476,1.476,0,0,0-.442.423.542.542,0,0,1-.442.221,1.807,1.807,0,0,1-1.119-.644c-.579-.595-.8-.969-.816-1.259a1.827,1.827,0,0,1,0-.423l.256-.068c.424.51.781.7,1,.7a1.692,1.692,0,0,0,.884-.254,39.1,39.1,0,0,0,9.015-6.961Zm-10.169-2.869a5.548,5.548,0,0,1,1.952.593,1.658,1.658,0,0,1,1.018,1.392.8.8,0,0,1-.764.9c-.423,0-.645-.323-.8-.7a3.692,3.692,0,0,0-1.562-1.867Zm6.62-1.02a5.088,5.088,0,0,1,2.123.849,1.328,1.328,0,0,1,.56,1c0,.425-.237.663-.56.663-.341,0-.476-.254-.764-.748a4.52,4.52,0,0,0-1.46-1.494Zm1.562-1.24a5.065,5.065,0,0,1,2.156.731,1.193,1.193,0,0,1,.611.985.579.579,0,0,1-.56.645c-.2,0-.391-.1-.68-.611a4.238,4.238,0,0,0-1.613-1.477Z" transform="translate(-34.524 -3.223)" fill="#fff"/>
      <path id="パス_24325" data-name="パス 24325" d="M37.049,53.784c-.727-.588-3.227-.181-4.3-.039-1.738.228-4.074.787-5.792,1.068.092.02,4.558.729,6.408,1.041a8.856,8.856,0,0,0,3.123.027c1.025-.291,1.143-.588,1.061-1.14a1.528,1.528,0,0,0-.5-.956" transform="translate(-3.815 -7.568)" fill="#fff"/>
      <path id="パス_24326" data-name="パス 24326" d="M8.025,53.784c.727-.588,3.227-.181,4.3-.039,1.738.228,4.074.787,5.792,1.068-.092.02-4.558.729-6.408,1.041a8.856,8.856,0,0,1-3.123.027c-1.025-.291-1.143-.588-1.061-1.14a1.528,1.528,0,0,1,.5-.956" transform="translate(-1.062 -7.568)" fill="#fff"/>
      <path id="パス_24327" data-name="パス 24327" d="M40.547,29.773h0L35.452,19.74a14.189,14.189,0,0,0,1.525-4.667,9.552,9.552,0,0,0-3.149-8.449c-.2-.174-.424-.326-.641-.48a5.842,5.842,0,0,0-.08-1.94C31.536-2.956,20.691.6,16.774,3.4a29.618,29.618,0,0,0-7.483,7.7,51.653,51.653,0,0,0-4.36,8.944L0,29.773H0V47.848H4.334a2.251,2.251,0,0,0,.851,1.779c.324.431,1.89,1.4,5.875.822a16.083,16.083,0,0,0-1.25,1.3H0V70.032H40.547V51.75l-10.161-.106a13.07,13.07,0,0,0-1.14-1.168c3.15.63,4.711.575,6.3-.794.465-.439.476-.617.435-1.7h4.566Zm-27.72-19.7c3.115-3.612,6.823-6.558,11.6-7.488,2.14-.416,5.581-.839,6.432,1.792A3.536,3.536,0,0,1,30.979,5a7.932,7.932,0,0,0-5.584.13c-2.4.982-4.936,3.848-3.2,6.491,1.773,2.694,5.321,1.756,7.441.135A10.044,10.044,0,0,0,32.5,8.417c3.258,2.921,2.638,6.714.96,10.169H7.922a31.89,31.89,0,0,1,4.905-8.514m17.788-2.83a7.691,7.691,0,0,1-2.865,3.15c-.956.6-2.32,1.146-3.328.355-1.464-1.148.308-2.812,1.411-3.386a5.656,5.656,0,0,1,4.782-.119M18.136,49.006c-.807.836-1.565,1.563-1.7,1.678l-.022.02a23.04,23.04,0,0,0-7.3,10.314,22.1,22.1,0,0,1-.354-3.167,29.968,29.968,0,0,0-2.964.688,27.566,27.566,0,0,1,5.436-7.087l-.033.01c.107-.1.222-.2.331-.3q.3-.274.6-.539c.144-.124.294-.243.44-.365.172-.037.343-.075.508-.114a30.358,30.358,0,0,0,3.687-.972c.9-.355,1.347-.5,1.37-.433a.437.437,0,0,1-.009.26m16.378,9.534a15.275,15.275,0,0,0-2.765-.589c-.038,1.426-.312.976-.553,3.067A23.04,23.04,0,0,0,23.9,50.7l-.022-.02c-.13-.115-1.021-1.031-1.7-1.678a.437.437,0,0,1-.009-.26c.023-.072.471.077,1.37.433a30.358,30.358,0,0,0,3.687.972c.165.039.337.077.508.114.147.122.3.24.44.365q.306.265.6.539c.109.1.224.193.331.3l-.033-.01a27.566,27.566,0,0,1,5.436,7.087m.261-10.162c.015.585-1.049.9-1.469,1.018a5.462,5.462,0,0,1-1.492.189,12.636,12.636,0,0,1-2.889-.414c-1.056-.255-4.25-.525-5.48-.912-.024-.007-.049-.009-.073-.015s-.066-.024-.1-.036c-.008,0-.021-.005-.028-.009l-.021-.009-.048-.017a6.5,6.5,0,0,1-1.238-.478c-.028.163-.051.066-.092.227a.317.317,0,0,1-.29.225h-2.8a.319.319,0,0,1-.29-.225c-.041-.161-.064-.064-.092-.227a6.5,6.5,0,0,1-1.238.478l-.048.017-.021.009c-.008,0-.021.006-.027.009-.033.012-.069.027-.1.036s-.049.009-.073.015c-1.229.387-4.424.658-5.48.912a12.636,12.636,0,0,1-2.889.414A5.462,5.462,0,0,1,7.009,49.4c-.42-.12-1.484-.433-1.469-1.018-.039-.67-.052-1.343-.052-2.013.005-.584-.017-3.345.762-4.049.82-.739,3.782.313,4.636.626,2.533.927,3.3,1.417,5.936,2.581a12.26,12.26,0,0,1,1.616.829c.011-.052.016-.235.029-.288a.319.319,0,0,1,.29-.225h2.8a.319.319,0,0,1,.29.225c.013.052.018.236.03.288a12.748,12.748,0,0,1,1.616-.829,59.094,59.094,0,0,1,5.936-2.581c.854-.312,3.816-1.365,4.636-.626.779.7.757,3.465.762,4.049,0,.67-.011,1.343-.052,2.013" transform="translate(0 0)" fill="#fff"/>
      <path id="パス_24328" data-name="パス 24328" d="M149.558,32.183a1.22,1.22,0,1,1,1.22,1.22,1.22,1.22,0,0,1-1.22-1.22" transform="translate(-21.167 -4.382)" fill="#fff"/>
    </g>
  </g>
</svg>
