<svg xmlns="http://www.w3.org/2000/svg" xmlns:xlink="http://www.w3.org/1999/xlink" width="212.499" height="62.213" viewBox="0 0 212.499 62.213">
  <defs>
    <clipPath id="clip-path">
      <rect id="長方形_433" data-name="長方形 433" width="212.499" height="62.213" fill="none"/>
    </clipPath>
  </defs>
  <g id="グループ_633" data-name="グループ 633" transform="translate(0 0)">
    <g id="グループ_632" data-name="グループ 632" transform="translate(0 0)" clip-path="url(#clip-path)">
      <path id="パス_19155" data-name="パス 19155" d="M70.544,71.03a.989.989,0,0,1-.1-.572c0-.276.031-.415.1-.415a3.983,3.983,0,0,0,.78-.095,7.935,7.935,0,0,0,.89-.239.874.874,0,0,0,.525-.334,9.861,9.861,0,0,0,.223-2.99V54.357q0-.922-.048-1.623a5.107,5.107,0,0,0-.176-1.114q-.063-.191-.493-.351a6.058,6.058,0,0,0-.922-.255,4.379,4.379,0,0,0-.78-.095q-.128,0-.127-.383a.8.8,0,0,1,.127-.54l3.819.064c.319,0,.668-.005,1.05-.016s.785-.026,1.21-.048.827-.037,1.209-.048.721-.015,1.018-.015a7.548,7.548,0,0,1,2.132.318,7.967,7.967,0,0,1,2.068.954,4.634,4.634,0,0,1,1.639,1.814,5.793,5.793,0,0,1,.62,2.736,6.05,6.05,0,0,1-.413,2.1,7.072,7.072,0,0,1-1.225,2.085,6.168,6.168,0,0,1-2.037,1.575,6.285,6.285,0,0,1-2.816.6,2.892,2.892,0,0,1-2.45-.89.869.869,0,0,1-.1-.733c.042-.1.074-.137.1-.095a6.324,6.324,0,0,0,2.132.35,3.3,3.3,0,0,0,1.956-.621,4.453,4.453,0,0,0,1.4-1.654,4.878,4.878,0,0,0,.525-2.244,5.859,5.859,0,0,0-.986-3.58,3.566,3.566,0,0,0-3.055-1.321,8.412,8.412,0,0,0-2.227.223q-.287.032-.334.986t-.048,2.514v11.36a9.447,9.447,0,0,0,.255,2.768,1.22,1.22,0,0,0,.62.476A4.814,4.814,0,0,0,77.672,70a4.928,4.928,0,0,0,.828.111c.084,0,.127.148.127.445a1.976,1.976,0,0,1-.064.477q-1.591-.063-2.625-.111t-1.51-.048Z" transform="translate(-22.485 -15.945)" fill="#b68b5a"/>
      <path id="パス_19156" data-name="パス 19156" d="M114.954,71.093q-4.423,0-7.732-4.582-.254-.349-.652-.954t-1.448-2.132q-.51-.732-.907-1.226a2.7,2.7,0,0,0-.922-.747,3.276,3.276,0,0,0-1.416-.255,1.341,1.341,0,0,0-.557.1q-.207.095-.207.445v4.677a9.44,9.44,0,0,0,.255,2.768,1.222,1.222,0,0,0,.621.477,4.783,4.783,0,0,0,1.065.334,4.89,4.89,0,0,0,.828.112q.127,0,.127.445a2.044,2.044,0,0,1-.063.477q-1.592-.064-2.626-.127a13.117,13.117,0,0,0-1.511-.032l-3.883.159a1,1,0,0,1-.1-.572c0-.276.033-.415.1-.415a3.934,3.934,0,0,0,.78-.1,7.8,7.8,0,0,0,.891-.238.883.883,0,0,0,.525-.334,9.939,9.939,0,0,0,.222-2.991V54.357c0-.614-.015-1.156-.048-1.622a5.111,5.111,0,0,0-.174-1.114c-.044-.127-.207-.244-.493-.351a5.893,5.893,0,0,0-.923-.255,4.321,4.321,0,0,0-.78-.1c-.084,0-.127-.127-.127-.382a.805.805,0,0,1,.127-.54l3.819.064q.922.032,2.259-.049t2.228-.078a8.338,8.338,0,0,1,3.292.668,6.282,6.282,0,0,1,2.578,1.973,5.069,5.069,0,0,1,1,3.182,5,5,0,0,1-1,2.8,6.556,6.556,0,0,1-2.721,2.259c-.212.084-.276.191-.191.318a22.255,22.255,0,0,0,3.659,5.6q3.055,3.34,4.964,3.341a.975.975,0,0,1,.1.446,1.048,1.048,0,0,1-.1.477,3.107,3.107,0,0,1-.859.095M103.882,59.83h.794a2.962,2.962,0,0,0,1.576-.509,4.226,4.226,0,0,0,1.369-1.431,4.054,4.054,0,0,0,.556-2.132q0-4.423-4.455-4.424a8.436,8.436,0,0,0-2.227.223q-.287.064-.335,1.034t-.048,2.466v3.851q0,.923,2.769.922" transform="translate(-30.59 -15.945)" fill="#b68b5a"/>
      <path id="パス_19157" data-name="パス 19157" d="M126.779,73.459a.676.676,0,0,1-.127-.477q0-.445.127-.445a4.88,4.88,0,0,0,.764-.08,4.475,4.475,0,0,0,.891-.239c.276-.106.435-.211.477-.318a5.617,5.617,0,0,0,.175-1.145q.048-.7.048-1.687v-7.1q0-.984-.048-1.7a5.125,5.125,0,0,0-.175-1.129q-.063-.191-.477-.334a6.784,6.784,0,0,0-.891-.24,4.175,4.175,0,0,0-.764-.095q-.128,0-.127-.413a.735.735,0,0,1,.127-.509l3.819.159q.254,0,1.177-.048t2.514-.111a1.944,1.944,0,0,1,.064.476c0,.3-.043.446-.127.446a3.531,3.531,0,0,0-.668.111q-.477.112-.891.255c-.276.1-.435.2-.477.3a12.088,12.088,0,0,0-.287,2.96v6.85a12.318,12.318,0,0,0,.287,2.96c.042.084.2.18.477.287a5.426,5.426,0,0,0,.891.255,3.976,3.976,0,0,0,.668.1c.084,0,.127.159.127.478a1.834,1.834,0,0,1-.064.444q-1.591-.063-2.514-.111T130.6,73.3Z" transform="translate(-40.442 -18.374)" fill="#b68b5a"/>
      <path id="パス_19158" data-name="パス 19158" d="M141.115,71a.642.642,0,0,1-.159-.477c0-.3.052-.445.159-.445a4.663,4.663,0,0,0,.827-.1,7.4,7.4,0,0,0,.986-.255,1.734,1.734,0,0,0,.668-.351,4.611,4.611,0,0,0,.573-2.768q.063-3.69.144-6.634t.143-4.836q.063-1.893.063-2.434a4.688,4.688,0,0,0-.127-1.273q-.064-.191-.556-.334a9.319,9.319,0,0,0-1.066-.24,5.926,5.926,0,0,0-.892-.095c-.084,0-.127-.149-.127-.446a.679.679,0,0,1,.127-.477q.765.033,1.687.1c.615.044,1.241.063,1.877.063q.6,0,1.321-.047c.477-.033,1.013-.069,1.606-.112q.255.7,6.3,15.942a.184.184,0,0,0,.127.063.15.15,0,0,0,.159-.127q1.558-3.658,2.8-6.682t2.164-5.377l1.273-3.819q1.018.064,1.67.1t.971.032q.985,0,1.877-.032t1.687-.1a1.58,1.58,0,0,1,.1.477c0,.3-.054.446-.159.446h-.063a2.855,2.855,0,0,0-.923.207,3.2,3.2,0,0,0-.859.43q-.382.286-.382,2.132l.287,12.918a9.291,9.291,0,0,0,.477,2.927.918.918,0,0,0,.509.351,5.31,5.31,0,0,0,.907.255,4.226,4.226,0,0,0,.715.1q.128,0,.127.445a1.972,1.972,0,0,1-.063.477q-1.592-.063-2.529-.111t-1.257-.048L160.461,71a.734.734,0,0,1-.127-.508q0-.414.127-.414a4.547,4.547,0,0,0,.971-.159,4.082,4.082,0,0,0,.939-.319q.382-.254.382-1.368V66.546l-.382-11.2a4.386,4.386,0,0,0-.08-.78q-.081-.429-.175-.763c-.064-.223-.138-.334-.223-.334-.042,0-.1.075-.159.223l-6.65,15.91q-.605,1.369-1.178,1.368a2.563,2.563,0,0,1-.286-.064l-7.287-18.519q-.1,4.486-.223,8t-.206,5.648q-.08,2.131-.08,2.482a1.4,1.4,0,0,0,.191.827,1.521,1.521,0,0,0,.636.334,8.286,8.286,0,0,0,1.066.287,4.756,4.756,0,0,0,.748.111c.084,0,.127.159.127.478a1.836,1.836,0,0,1-.064.444q-1.591-.063-2.514-.111t-1.177-.048Z" transform="translate(-45.01 -15.915)" fill="#b68b5a"/>
      <path id="パス_19159" data-name="パス 19159" d="M198.462,71q-.8,0-2.084-.016t-3.039-.048q-1.751-.032-3.182-.047t-2.546-.016l-3.85.095a.823.823,0,0,1-.1-.508c0-.276.031-.415.1-.415a3.5,3.5,0,0,0,.763-.111,7.117,7.117,0,0,0,.907-.271.929.929,0,0,0,.526-.349,9.9,9.9,0,0,0,.223-2.991V54.3q0-.921-.048-1.623a5.145,5.145,0,0,0-.175-1.113q-.064-.191-.493-.351a5.907,5.907,0,0,0-.922-.255,4.328,4.328,0,0,0-.779-.1c-.086,0-.127-.127-.127-.382a.794.794,0,0,1,.127-.54q.827.032,1.766.048t2.02.016q.732,0,1.973-.032t2.991-.1q1.782-.063,3.1-.1t2.212-.031q.063.446.191,1.066t.319,1.352q.159.764.27,1.241t.144.669a.806.806,0,0,1-.573.159q-.413,0-.445-.223a3.537,3.537,0,0,0-1.336-2.243,4.737,4.737,0,0,0-2.355-.494h-2.132q-2.768,0-2.8.415c-.043.255-.08.6-.112,1.05s-.048.986-.048,1.623v5.091q0,.191,1.368.191H192q1.081,0,1.463-.016a1.989,1.989,0,0,0,.557-.079q.175-.063.684-.191.318-.064.493-.748c.116-.457.217-.832.3-1.129.022-.148.18-.223.478-.223a.751.751,0,0,1,.541.159v6.014a.736.736,0,0,1-.509.127c-.276,0-.446-.085-.51-.255q-.127-.445-.223-.764c-.063-.212-.116-.392-.159-.542a1.569,1.569,0,0,0-.238-.508c-.053-.043-.143-.106-.27-.191a11.354,11.354,0,0,0-3.373-.255q-2.291,0-2.291.286v4.933a9.976,9.976,0,0,0,.287,2.894q.095.32,2.163.319h1.527a10.067,10.067,0,0,0,4.009-.54A3.449,3.449,0,0,0,198,67.8a7.4,7.4,0,0,0,.939-2.084c.042-.127.191-.191.446-.191a1.167,1.167,0,0,1,.8.191c-.063.169-.165.43-.3.78s-.271.705-.4,1.066-.233.668-.317.922q-.191.573-.414,1.3a7.922,7.922,0,0,0-.287,1.21" transform="translate(-58.638 -15.885)" fill="#b68b5a"/>
      <path id="パス_19160" data-name="パス 19160" d="M221.719,71a.676.676,0,0,1-.127-.477q0-.445.127-.445a4.88,4.88,0,0,0,.764-.08,4.474,4.474,0,0,0,.891-.239c.276-.106.435-.211.477-.318a5.618,5.618,0,0,0,.175-1.145q.048-.7.048-1.687V54.263q0-.985-.048-1.7a5.125,5.125,0,0,0-.175-1.129c-.042-.127-.2-.239-.477-.334a6.783,6.783,0,0,0-.891-.24,4.175,4.175,0,0,0-.764-.095c-.085,0-.127-.138-.127-.414a.736.736,0,0,1,.127-.509q.287,0,.971.048c.456.031.949.064,1.479.1s.987.048,1.369.048q1.018,0,2.037-.08t1.654-.112a1.26,1.26,0,0,1,.048.525q-.016.4-.111.4a3.475,3.475,0,0,0-.668.111,9.113,9.113,0,0,0-.891.255q-.413.144-.477.3a12.081,12.081,0,0,0-.287,2.959v5.187l.223.19h.223a2.444,2.444,0,0,0,1.845-.922q1.877-2.068,3.23-3.691t2.243-2.768a3.028,3.028,0,0,0,.764-1.209q0-.54-1.813-.54c-.085,0-.127-.1-.127-.287a1.922,1.922,0,0,1,.016-.27,2.315,2.315,0,0,1,.048-.239l1.845.127q.923.064,1.559.064.54,0,1.193-.048c.434-.031.838-.064,1.209-.1s.642-.048.811-.048a1.054,1.054,0,0,1,.048.461c-.012.223-.048.335-.112.335a4.513,4.513,0,0,0-2.928,1.336l-6.4,7.445q-.254.287.223.859l7.669,8.432a4.077,4.077,0,0,0,1.623,1.018,5.316,5.316,0,0,0,1.75.35q.159,0,.159.572a1.1,1.1,0,0,1-.064.35q-1.591-.063-2.577-.111t-1.368-.048q-1.337,0-2.4.048T233.842,71a.8.8,0,0,1-.127-.54c0-.255.043-.382.127-.382a3.575,3.575,0,0,0,.875-.127q.493-.126.493-.382,0-1.017-7.223-8.432a1.789,1.789,0,0,0-.922-.127q-.224,0-.223.255v5.217a12.318,12.318,0,0,0,.287,2.96c.042.084.2.18.477.287a5.408,5.408,0,0,0,.891.255,3.977,3.977,0,0,0,.668.1q.095,0,.111.382a1.426,1.426,0,0,1-.048.54q-1.591-.063-2.514-.111t-1.177-.048Z" transform="translate(-70.758 -15.915)" fill="#b68b5a"/>
      <path id="パス_19161" data-name="パス 19161" d="M253.133,70.985a.67.67,0,0,1-.127-.476c0-.3.042-.446.127-.446a4.051,4.051,0,0,0,.986-.159,1.516,1.516,0,0,0,.827-.445,7.059,7.059,0,0,0,.716-1.178q.366-.732.779-1.815l5.537-14.222a6.094,6.094,0,0,0,.238-.668q.048-.191.1-.335c.031-.095.1-.259.206-.493a3.363,3.363,0,0,1,.446-.7.927.927,0,0,1,.732-.255l.287.1,6.364,16.8q.287.731.525,1.3c.159.382.291.711.4.986a1.167,1.167,0,0,0,.557.558,4.667,4.667,0,0,0,.89.381,2.6,2.6,0,0,0,.717.144c.084,0,.127.2.127.605a.763.763,0,0,1-.016.143,1.521,1.521,0,0,1-.048.174q-1.592-.063-2.466-.111T270,70.826l-3.691.159a.723.723,0,0,1-.112-.524c.011-.265.059-.4.144-.4a3.688,3.688,0,0,0,.954-.159q.573-.159.668-.414a2.328,2.328,0,0,0,.048-.255,2.112,2.112,0,0,0,.016-.255,5.8,5.8,0,0,0-.1-.969,4.506,4.506,0,0,0-.223-.875l-1.431-3.945a.256.256,0,0,0-.191-.127q-1.241-.1-2.418-.1-.827,0-1.83.048t-2.211.111l-.159.1-1.368,3.5a8.157,8.157,0,0,0-.429,1.336,4.52,4.52,0,0,0-.111.859.74.74,0,0,0,.255.636,2.376,2.376,0,0,0,.922.366,4.748,4.748,0,0,0,.923.144q.095,0,.111.382a1.44,1.44,0,0,1-.048.54l-3.277-.159a10.582,10.582,0,0,0-1.734.016q-.843.079-1.574.142m9.418-9.545q1.433,0,2.9-.1l.1-.159-2.577-7.032-2.736,7.1c0,.085.021.127.063.127q.827.033,1.384.048c.371.012.662.016.875.016" transform="translate(-80.789 -15.9)" fill="#b68b5a"/>
      <path id="パス_19162" data-name="パス 19162" d="M281.64,78.128a2.6,2.6,0,0,1-.763-.127,4.5,4.5,0,0,1-.668-.255l-.223-.127a1.747,1.747,0,0,1-.382-1.177,1.377,1.377,0,0,1,.59-1.146,2.228,2.228,0,0,1,1.383-.445,2.041,2.041,0,0,1,1.3.7,2.073,2.073,0,0,0,1.114.668q.89,0,1.814-1.75a8.946,8.946,0,0,0,.732-2.434,20.17,20.17,0,0,0,.287-3.58V54.263q0-.984-.048-1.7a5.159,5.159,0,0,0-.176-1.129q-.063-.191-.477-.334a6.771,6.771,0,0,0-.89-.24,4.189,4.189,0,0,0-.764-.095q-.128,0-.127-.413a.738.738,0,0,1,.127-.51q.286,0,.97.048c.456.031.95.064,1.48.1s.986.048,1.368.048q1.018,0,2.037-.08t1.655-.112a2.02,2.02,0,0,1,.063.477c0,.3-.043.446-.127.446a3.539,3.539,0,0,0-.668.111,9.1,9.1,0,0,0-.89.255q-.415.144-.477.3a12.05,12.05,0,0,0-.287,2.959V68.2a12.152,12.152,0,0,1-.589,3.8,10.348,10.348,0,0,1-1.655,3.165,8.068,8.068,0,0,1-2.529,2.165,6.567,6.567,0,0,1-3.182.8" transform="translate(-89.282 -15.915)" fill="#b68b5a"/>
      <path id="パス_19163" data-name="パス 19163" d="M301,74.26a.676.676,0,0,1-.127-.477q0-.445.127-.445a4.878,4.878,0,0,0,.764-.08,4.474,4.474,0,0,0,.891-.239c.276-.106.435-.211.477-.318a5.615,5.615,0,0,0,.175-1.145q.048-.7.048-1.687v-5.4q0-.984-.048-1.7a5.123,5.123,0,0,0-.175-1.129q-.063-.191-.477-.334a6.782,6.782,0,0,0-.891-.24,4.175,4.175,0,0,0-.764-.095q-.128,0-.127-.413a.735.735,0,0,1,.127-.509l3.819.159q.254,0,1.177-.048t2.514-.111a1.947,1.947,0,0,1,.064.476c0,.3-.043.446-.127.446a3.532,3.532,0,0,0-.668.111q-.477.112-.891.255c-.276.1-.435.2-.477.3a12.083,12.083,0,0,0-.287,2.959v5.142a12.316,12.316,0,0,0,.287,2.96c.042.084.2.18.477.287a5.428,5.428,0,0,0,.891.255,3.977,3.977,0,0,0,.668.1c.084,0,.127.159.127.478a1.837,1.837,0,0,1-.064.444q-1.591-.063-2.514-.111t-1.177-.048Z" transform="translate(-96.073 -19.175)" fill="#b68b5a"/>
      <rect id="長方形_429" data-name="長方形 429" width="5.907" height="5.907" transform="translate(195.116 25.902) rotate(-45)" fill="#ab8fb2"/>
      <rect id="長方形_430" data-name="長方形 430" width="4.753" height="4.753" transform="matrix(0.707, -0.707, 0.707, 0.707, 205.114, 34.439)" fill="#ab8fb2"/>
      <rect id="長方形_431" data-name="長方形 431" width="3.029" height="3.029" transform="translate(208.115 24.117) rotate(-45)" fill="#ab8fb2"/>
      <rect id="長方形_432" data-name="長方形 432" width="3.832" height="4.01" transform="translate(88.067 33.424)" fill="#ab8fb2"/>
      <path id="パス_19164" data-name="パス 19164" d="M82.739,32.624a1.329,1.329,0,0,0-1.029.69,9.311,9.311,0,0,1-4.434-6.279,14.933,14.933,0,0,1-1.343.854,5.273,5.273,0,0,1,2.122,4.144c0,1.544-.5,2.348-1.808,2.436-.088-.489-.44-.791-1.205-.992l.026-.226a8.537,8.537,0,0,0,1.218.1c.54,0,.816-.3.816-1.381,0-.2-.012-.415-.025-.615a15.96,15.96,0,0,1-5.651,2.109l-.088-.2a17.333,17.333,0,0,0,5.55-2.876,7.6,7.6,0,0,0-.3-.854,15.415,15.415,0,0,1-5,1.821l-.088-.213a13.649,13.649,0,0,0,4.646-2.4,7.1,7.1,0,0,0-.54-.679,17.954,17.954,0,0,1-3.842,1.457l-.113-.2a14.848,14.848,0,0,0,4.622-2.663H74.351l-1.268.063v-.515l1.268.063h4.608c.251-.314.452-.54.7-.816,1.118.791,1.218.942,1.218,1.055,0,.088-.063.15-.188.15H77.829a.339.339,0,0,1-.263.252,8.569,8.569,0,0,0,.427,1.054,9.065,9.065,0,0,0,.666,1.168,10.642,10.642,0,0,0,2.311-2.085c1,.653,1.092.766,1.092.917s-.163.238-.628.189a14.191,14.191,0,0,1-2.549,1.293,8.638,8.638,0,0,0,3.893,2.939Zm-6.292-8.175v-.314c0-.666-.012-.917-.037-1.318,1.255.113,1.532.226,1.532.364s-.088.238-.49.377v.891h3.5c.251-.5.365-.565.5-.565s.264.038.7.4c.364.314.427.44.427.59s-.139.277-.653.364a10.155,10.155,0,0,1-1.043.754l-.176-.138a9.545,9.545,0,0,0,.314-1.017H72.944a1.8,1.8,0,0,1,.013.263c0,.917-.5,1.331-.979,1.331a.5.5,0,0,1-.54-.489.8.8,0,0,1,.377-.641,1.449,1.449,0,0,0,.64-1.444l.214-.037a2.637,2.637,0,0,1,.213.628Z" transform="translate(-22.779 -7.286)" fill="#312200"/>
      <path id="パス_19165" data-name="パス 19165" d="M91.545,32.17l-1.205.063v-.515l1.205.063h3.341V30.663H90.754l-1.268.063v-.515l1.268.063h4.132v-1.1H91.457l-1.205.063v-.515l1.205.063h3.429V27.8H92.65v.088c0,.264-.3.439-.716.439-.189,0-.251-.075-.251-.238,0-.214.05-.741.05-1.745,0-.427,0-.653-.025-.992a7.775,7.775,0,0,1,1.092.376h2.085v-.854H91.081l-1.256.063v-.515l1.256.063h3.805c-.013-.765-.025-1.218-.05-1.595,1.293.126,1.482.214,1.482.352s-.1.238-.5.389v.854H99a10.824,10.824,0,0,1,.729-.891c1.167.828,1.318,1.029,1.318,1.13s-.075.15-.2.15H95.814v.854h2.324c.188-.339.263-.376.376-.376s.2.025.565.289.389.351.389.452c0,.125-.125.226-.389.389v.188c0,.553.038.854.038,1.093,0,.213-.277.376-.679.376-.2,0-.276-.076-.276-.226V27.8H95.827v.98h2.725c.176-.415.276-.5.4-.5s.238.037.6.314c.327.263.4.389.4.5s-.076.2-.389.364v.816h.213c.176-.251.377-.527.578-.791.9.766.992.942.992,1.029s-.075.151-.2.151H99.57c.012,1.054.062,1.645.062,1.934,0,.251-.351.427-.753.427-.176,0-.264-.076-.264-.239V32.17H95.865c.012.678.025,1.067.025,1.318,0,.653-.528,1.118-1.508,1.118-.1-.54-.351-.754-1.318-.992l.025-.239c.4.037.829.076,1.318.076.389,0,.478-.063.478-.465V32.17Zm3.341-6.053h-2.1l-.137.163v1.131h2.235Zm.928,1.294h2.348V26.117H95.814Zm.013,1.758c0,.363,0,.741.012,1.1h2.775v-1.1Zm.012,1.494c.013.377.013.741.026,1.118h2.749V30.663Z" transform="translate(-28.574 -7.309)" fill="#312200"/>
      <path id="パス_19166" data-name="パス 19166" d="M107.764,29.964a25.089,25.089,0,0,0,2.411-6.618c1.331.314,1.482.427,1.482.553s-.113.251-.528.338a18.087,18.087,0,0,1-.917,2.286c.44.113.565.189.565.289s-.088.2-.364.327v1.357c0,3.817.038,5.148.038,5.676,0,.226-.364.44-.8.44-.188,0-.276-.088-.276-.238,0-.478.076-1.809.076-5.89v-.528a16.019,16.019,0,0,1-1.482,2.135Zm9.732-3.478c.213-.327.389-.628.665-.98,1.344.816,1.381.9,1.394,1s-.063.15-.189.163l-4.559.489a11.452,11.452,0,0,0,.377,1.695,7.268,7.268,0,0,0,2.222,3.616c.452.365.641.466.854.466.176,0,.389-.151.967-1.457l.213.063a10.593,10.593,0,0,0-.326,1.62c0,.313.276.351.276.7a.492.492,0,0,1-.553.478,2.947,2.947,0,0,1-1.683-.641,8.4,8.4,0,0,1-2.939-4.52,13.818,13.818,0,0,1-.4-1.909l-1.645.176-1.1.176-.05-.514,1.118-.051,1.62-.175c-.126-.98-.226-2.16-.276-3.555,1.343.139,1.532.214,1.532.377,0,.138-.1.226-.464.338a22.546,22.546,0,0,0,.213,2.738ZM115.361,24.1c1.231.112,2,.678,2,1.293a.5.5,0,0,1-.515.54.546.546,0,0,1-.515-.4,2.671,2.671,0,0,0-1.08-1.231Z" transform="translate(-34.411 -7.45)" fill="#312200"/>
      <path id="パス_19167" data-name="パス 19167" d="M126.392,30.055a16.593,16.593,0,0,0,2.989-4.458c1.08.465,1.205.578,1.205.741,0,.137-.15.226-.528.251a11.225,11.225,0,0,1-1,1.381c.44.125.54.2.54.3s-.088.188-.364.327v1.08c0,2.876.05,3.968.05,4.445,0,.214-.415.415-.828.415-.189,0-.263-.075-.263-.213,0-.477.075-1.67.075-4.659v-.841a12.234,12.234,0,0,1-1.72,1.406Zm.226-4.132a12.242,12.242,0,0,0,2.964-3.051c.941.565,1.13.741,1.13.9s-.176.251-.565.226a12.188,12.188,0,0,1-3.39,2.123Zm9.318,1.809a.35.35,0,0,1-.226.314v.816c0,3.139.05,3.842.05,4.333,0,.715-.6,1.142-1.619,1.142-.076-.577-.339-.867-1.193-1.067l.026-.238a9.856,9.856,0,0,0,1.28.088c.339,0,.439-.1.439-.415V27.732h-3.113l-1.218.063v-.515l1.218.063h4.483a10.614,10.614,0,0,1,.8-.954c1.205.916,1.293,1.067,1.293,1.193,0,.088-.075.151-.2.151Zm-.641-3.68c.251-.314.477-.59.791-.929,1.181.917,1.243,1.042,1.243,1.167,0,.088-.075.151-.2.151h-4.7l-1.205.063V23.99l1.205.063Z" transform="translate(-40.359 -7.303)" fill="#312200"/>
      <path id="パス_19168" data-name="パス 19168" d="M159.485,33.421a12.212,12.212,0,0,0,6.65-7.4.14.14,0,0,0-.148-.2c-.162,0-.323.013-.861.054-1.065.1-2.424.269-3.944.539a3.4,3.4,0,0,0-.634.148.773.773,0,0,1-.336.082,1.29,1.29,0,0,1-.781-.513,1.88,1.88,0,0,1-.457-.955l.214-.108a1.413,1.413,0,0,0,1.28.457c.511-.013,1.251-.052,1.871-.106,1.051-.067,2.248-.176,3.379-.3a.932.932,0,0,0,.673-.255.579.579,0,0,1,.325-.162,1.507,1.507,0,0,1,.673.376c.4.323.565.5.565.7,0,.121-.162.269-.338.362a1,1,0,0,0-.47.539c-1.926,4.348-4.376,6.084-7.511,7.041Zm10.54-9.989a1.285,1.285,0,1,1-1.293-1.291,1.288,1.288,0,0,1,1.293,1.291m-2.1,0a.815.815,0,1,0,1.63,0,.815.815,0,0,0-1.63,0" transform="translate(-50.763 -7.07)" fill="#312200"/>
      <path id="パス_19169" data-name="パス 19169" d="M178.407,34.322a13.815,13.815,0,0,0,6.286-7.067c-1.87.147-3.54.31-4.738.485a3.018,3.018,0,0,0-.955.2.7.7,0,0,1-.323.121,1.075,1.075,0,0,1-.593-.337,2.256,2.256,0,0,1-.485-.659,2.378,2.378,0,0,1-.162-.4l.2-.121a1.591,1.591,0,0,0,1.037.458c.524-.014.861-.041,1.171-.054,1.225-.082,2.8-.189,4.011-.3a1.632,1.632,0,0,0,.916-.243.629.629,0,0,1,.363-.188c.148,0,.282.08.673.4.362.311.578.552.578.742,0,.147-.121.268-.35.376a.992.992,0,0,0-.485.444c-1.641,3.124-3.661,5.262-6.985,6.434Zm.526-10.123a1.857,1.857,0,0,0,1.359.39c.619-.014,1.883-.135,2.894-.269a2.13,2.13,0,0,0,.727-.175,1.131,1.131,0,0,1,.377-.108c.485,0,1.009.3,1.009.606,0,.216-.093.377-.645.418-1.4.067-2.639.175-3.676.255-.309.041-.686.082-.835.095a1.928,1.928,0,0,1-.362.067,1.344,1.344,0,0,1-.687-.525,1.711,1.711,0,0,1-.323-.619Z" transform="translate(-56.659 -7.675)" fill="#312200"/>
      <path id="パス_19170" data-name="パス 19170" d="M193.314,31.335a26.633,26.633,0,0,0,4.442-3.823,21.836,21.836,0,0,0,2.22-2.679.671.671,0,0,0,.149-.377c0-.121-.175-.323-.714-.444l.014-.255a5.505,5.505,0,0,1,.632-.054,1.332,1.332,0,0,1,.513.08c.524.162,1.131.647,1.131.956a.354.354,0,0,1-.256.363c-.162.067-.283.148-.578.511-.552.632-.929,1.05-1.535,1.656.431.269.524.444.524.645,0,.108-.039.391-.039.781,0,.5,0,1.359.014,2.262,0,1.1.026,2.22.026,2.745,0,.634-.175.822-.51.822s-.673-.458-.673-1.225a2.777,2.777,0,0,1,.067-.5,4.853,4.853,0,0,0,.067-.916q.042-1.415.041-3.513a1.4,1.4,0,0,0-.082-.552,20.985,20.985,0,0,1-5.276,3.782Z" transform="translate(-61.728 -7.568)" fill="#312200"/>
      <path id="パス_19171" data-name="パス 19171" d="M216.267,29.092a6.518,6.518,0,0,1,2.6,2.221,2.759,2.759,0,0,1,.513,1.331c.014.525-.242.822-.619.822-.31,0-.472-.189-.552-.525-.1-.269-.216-.593-.351-.97-2.221.4-4.065.741-6.085,1.117a4.641,4.641,0,0,0-.686.19.9.9,0,0,1-.323.08,1.521,1.521,0,0,1-.808-.579,1.459,1.459,0,0,1-.309-.955l.2-.08a.813.813,0,0,0,.794.349c.309,0,.565,0,.834-.026a56.006,56.006,0,0,0,2.033-5.345,3.6,3.6,0,0,0,.188-.807.325.325,0,0,0-.161-.323,1.1,1.1,0,0,0-.5-.2v-.282a3.236,3.236,0,0,1,.74-.082c.457,0,1.535.66,1.535,1.01,0,.189-.054.256-.229.4a2.082,2.082,0,0,0-.472.688c-.7,1.44-1.6,3.324-2.435,4.912,1.7-.148,3.392-.323,5.466-.579a6.9,6.9,0,0,0-1.563-2.113Z" transform="translate(-66.943 -7.991)" fill="#312200"/>
      <path id="パス_19172" data-name="パス 19172" d="M230.181,24.479a2.221,2.221,0,0,1,.807-.242,1.748,1.748,0,0,1,.874.3c.364.228.593.47.593.659,0,.121-.053.2-.188.323a.779.779,0,0,0-.2.391c-.094.431-.175.754-.257,1.184.889-.054,1.55-.135,2.3-.2a.7.7,0,0,0,.485-.176.411.411,0,0,1,.31-.175,1.583,1.583,0,0,1,.685.431c.336.283.472.485.472.632,0,.108-.028.216-.229.325a.425.425,0,0,0-.255.376,26.122,26.122,0,0,1-.89,4.294,1.861,1.861,0,0,1-.754,1.022,1.445,1.445,0,0,1-.766.337c-.229,0-.325-.095-.378-.337a.7.7,0,0,0-.349-.457,5.727,5.727,0,0,0-.794-.4l.093-.282a5.639,5.639,0,0,0,1.253.189.718.718,0,0,0,.766-.619,17.97,17.97,0,0,0,.9-4.416c.013-.067-.04-.108-.108-.108-.9.041-1.669.108-2.868.242a11.629,11.629,0,0,1-1.373,3.473,6.913,6.913,0,0,1-3.581,2.827l-.147-.282a8.262,8.262,0,0,0,2.691-2.518,10.962,10.962,0,0,0,1.388-3.4,14.3,14.3,0,0,0-1.751.241,1.9,1.9,0,0,0-.566.149.729.729,0,0,1-.3.08c-.146.013-.389-.148-.6-.418a1.931,1.931,0,0,1-.471-.9l.2-.108a1.27,1.27,0,0,0,1,.431c.485.013,1.36-.054,2.626-.162a12.233,12.233,0,0,0,.229-2.005c0-.121-.013-.216-.1-.27a2.246,2.246,0,0,0-.726-.174Z" transform="translate(-72.353 -7.739)" fill="#312200"/>
      <path id="パス_19173" data-name="パス 19173" d="M244.033,27.43a4.206,4.206,0,0,1,1.521.377c.645.324.916.647.916,1.171a.618.618,0,0,1-.606.634c-.2,0-.391-.095-.593-.513a3.019,3.019,0,0,0-1.346-1.4Zm9.907-.592a24.047,24.047,0,0,1-6.851,6.341,1.17,1.17,0,0,0-.351.336.43.43,0,0,1-.351.175,1.433,1.433,0,0,1-.888-.511c-.459-.472-.634-.768-.647-1a1.451,1.451,0,0,1,0-.336l.2-.054c.336.4.619.552.793.552a1.341,1.341,0,0,0,.7-.2,31,31,0,0,0,7.148-5.52Zm-8.063-2.275a4.4,4.4,0,0,1,1.548.47,1.315,1.315,0,0,1,.807,1.1.636.636,0,0,1-.606.714c-.336,0-.511-.256-.632-.552a2.927,2.927,0,0,0-1.238-1.48Zm5.249-.809a4.035,4.035,0,0,1,1.683.673,1.053,1.053,0,0,1,.444.794c0,.337-.188.525-.444.525s-.378-.2-.606-.593a3.584,3.584,0,0,0-1.158-1.184Zm1.238-.983a4.016,4.016,0,0,1,1.71.58.946.946,0,0,1,.485.781.459.459,0,0,1-.444.511c-.162,0-.31-.08-.539-.485a3.36,3.36,0,0,0-1.279-1.171Z" transform="translate(-77.889 -7.271)" fill="#312200"/>
      <path id="パス_19174" data-name="パス 19174" d="M34.958,53.72c-.577-.466-2.559-.144-3.412-.031-1.378.181-3.231.624-4.593.847.073.016,3.614.578,5.081.826a7.022,7.022,0,0,0,2.476.021c.813-.231.907-.466.841-.9a1.211,1.211,0,0,0-.395-.758" transform="translate(-8.607 -17.075)" fill="#312200"/>
      <path id="パス_19175" data-name="パス 19175" d="M7.918,53.72c.577-.466,2.559-.144,3.412-.031,1.378.181,3.231.624,4.593.847-.073.016-3.614.578-5.081.826a7.022,7.022,0,0,1-2.476.021c-.813-.231-.907-.466-.841-.9a1.211,1.211,0,0,1,.395-.758" transform="translate(-2.397 -17.075)" fill="#312200"/>
      <path id="パス_19176" data-name="パス 19176" d="M32.15,23.608h0L28.11,15.652a11.251,11.251,0,0,0,1.21-3.7,7.574,7.574,0,0,0-2.5-6.7c-.162-.138-.336-.259-.508-.381a4.632,4.632,0,0,0-.063-1.538C25-2.343,16.406.479,13.3,2.694A23.484,23.484,0,0,0,7.367,8.8,40.956,40.956,0,0,0,3.91,15.893L0,23.608H0V37.939H3.436a1.784,1.784,0,0,0,.675,1.41c.257.342,1.5,1.107,4.659.651a12.753,12.753,0,0,0-.991,1.032H0v14.5H32.15v-14.5l-8.057-.084a10.366,10.366,0,0,0-.9-.926c2.5.5,3.736.456,4.995-.63.369-.348.377-.489.345-1.35H32.15ZM10.171,7.986c2.47-2.864,5.41-5.2,9.2-5.938,1.7-.33,4.425-.665,5.1,1.421a2.8,2.8,0,0,1,.093.5,6.289,6.289,0,0,0-4.428.1c-1.905.779-3.914,3.051-2.536,5.147,1.406,2.136,4.219,1.392,5.9.107a7.964,7.964,0,0,0,2.269-2.65c2.583,2.316,2.092,5.324.761,8.063H6.281a25.286,25.286,0,0,1,3.889-6.751m14.1-2.244A6.1,6.1,0,0,1,22,8.239c-.758.474-1.839.909-2.639.282-1.161-.91.244-2.23,1.119-2.685a4.485,4.485,0,0,1,3.791-.095m-9.9,33.116c-.64.663-1.241,1.24-1.344,1.331l-.018.016A18.268,18.268,0,0,0,7.23,48.382a17.526,17.526,0,0,1-.28-2.511,23.766,23.766,0,0,0-2.35.546A21.857,21.857,0,0,1,8.909,40.8l-.026.008c.085-.081.176-.155.263-.234q.236-.217.479-.427c.114-.1.233-.193.349-.289.136-.029.272-.059.4-.091a24.072,24.072,0,0,0,2.924-.771c.713-.282,1.068-.4,1.086-.343a.347.347,0,0,1-.007.206m12.986,7.56a12.112,12.112,0,0,0-2.192-.467c-.03,1.131-.247.774-.438,2.432A18.268,18.268,0,0,0,18.948,40.2l-.018-.016c-.1-.091-.809-.818-1.344-1.331a.347.347,0,0,1-.007-.206c.018-.057.374.061,1.086.343a24.071,24.071,0,0,0,2.924.771c.131.031.267.061.4.091.116.1.235.191.349.289q.243.21.479.427c.086.079.178.153.263.234l-.026-.008a21.857,21.857,0,0,1,4.31,5.619m.207-8.057c.012.464-.832.712-1.165.807a4.331,4.331,0,0,1-1.183.15,10.02,10.02,0,0,1-2.29-.328c-.837-.2-3.37-.416-4.345-.723-.019-.005-.039-.007-.058-.012s-.052-.019-.078-.029l-.022-.007-.017-.007-.038-.014a5.155,5.155,0,0,1-.982-.379c-.022.129-.04.052-.073.18a.252.252,0,0,1-.23.178H14.874a.253.253,0,0,1-.23-.178c-.033-.128-.05-.051-.073-.18a5.155,5.155,0,0,1-.982.379l-.038.014-.017.007-.022.007c-.027.01-.054.021-.079.029s-.039.007-.058.012c-.975.307-3.508.521-4.345.723a10.02,10.02,0,0,1-2.29.328,4.331,4.331,0,0,1-1.183-.15c-.333-.1-1.177-.343-1.165-.807-.031-.532-.041-1.065-.041-1.6,0-.463-.014-2.653.6-3.21.65-.586,3,.248,3.676.5,2.009.735,2.613,1.124,4.707,2.046a9.721,9.721,0,0,1,1.282.658c.009-.041.013-.187.023-.228a.253.253,0,0,1,.23-.178h2.218a.253.253,0,0,1,.23.178c.01.042.014.187.024.228a10.109,10.109,0,0,1,1.281-.658,46.857,46.857,0,0,1,4.707-2.046c.677-.248,3.026-1.082,3.676-.5.618.557.6,2.747.6,3.21,0,.531-.009,1.065-.041,1.6" transform="translate(0 0)" fill="#312200"/>
      <path id="パス_19177" data-name="パス 19177" d="M149.558,31.93a.967.967,0,1,1,.967.967.967.967,0,0,1-.967-.967" transform="translate(-47.756 -9.887)" fill="#312200"/>
    </g>
  </g>
</svg>
