<svg xmlns="http://www.w3.org/2000/svg" width="110.135" height="111.791" viewBox="0 0 110.135 111.791">
  <g id="グループ_2102" data-name="グループ 2102" transform="translate(17.392 16)">
    <g id="グループ_2103" data-name="グループ 2103" transform="translate(-17.392 -16)">
      <path id="パス_24228" data-name="パス 24228" d="M70.5,64.052a.662.662,0,0,1-.064-.383c0-.185.021-.277.064-.277a2.666,2.666,0,0,0,.522-.063,5.309,5.309,0,0,0,.6-.16.585.585,0,0,0,.351-.224,6.6,6.6,0,0,0,.149-2v-8.05q0-.617-.032-1.086a3.418,3.418,0,0,0-.118-.745q-.042-.128-.33-.235a4.055,4.055,0,0,0-.617-.17A2.93,2.93,0,0,0,70.5,50.6q-.085,0-.085-.256a.534.534,0,0,1,.085-.362l2.556.043c.213,0,.447,0,.7-.011s.525-.017.809-.032.553-.025.809-.032.482-.01.681-.01a5.051,5.051,0,0,1,1.427.213,5.332,5.332,0,0,1,1.384.639A3.1,3.1,0,0,1,79.968,52a3.876,3.876,0,0,1,.415,1.831,4.049,4.049,0,0,1-.277,1.4,4.733,4.733,0,0,1-.82,1.4,4.128,4.128,0,0,1-1.363,1.054,4.206,4.206,0,0,1-1.885.4,1.935,1.935,0,0,1-1.639-.6A.582.582,0,0,1,74.336,57c.028-.07.049-.092.064-.063a4.232,4.232,0,0,0,1.427.234,2.207,2.207,0,0,0,1.309-.415,2.98,2.98,0,0,0,.937-1.107,3.264,3.264,0,0,0,.352-1.5,3.921,3.921,0,0,0-.66-2.4,2.387,2.387,0,0,0-2.044-.884,5.63,5.63,0,0,0-1.491.149q-.192.021-.224.66t-.032,1.682v7.6a6.321,6.321,0,0,0,.17,1.853.816.816,0,0,0,.415.319,3.222,3.222,0,0,0,.713.224,3.3,3.3,0,0,0,.554.074c.056,0,.085.1.085.3a1.322,1.322,0,0,1-.043.319q-1.065-.042-1.757-.074T73.1,63.946Z" transform="translate(-70.417 42.968)" fill="#fff"/>
      <path id="パス_24229" data-name="パス 24229" d="M108.618,64.095q-2.96,0-5.174-3.066-.17-.234-.436-.638t-.969-1.427q-.341-.49-.607-.82a1.8,1.8,0,0,0-.617-.5,2.193,2.193,0,0,0-.948-.17.9.9,0,0,0-.373.064q-.139.064-.139.3v3.13a6.317,6.317,0,0,0,.17,1.853.818.818,0,0,0,.415.319,3.2,3.2,0,0,0,.713.224,3.273,3.273,0,0,0,.554.075q.085,0,.085.3a1.368,1.368,0,0,1-.042.319q-1.065-.043-1.757-.085a8.783,8.783,0,0,0-1.011-.021l-2.6.106a.67.67,0,0,1-.064-.383c0-.185.022-.277.064-.277a2.633,2.633,0,0,0,.522-.064,5.219,5.219,0,0,0,.6-.159.591.591,0,0,0,.352-.224,6.651,6.651,0,0,0,.148-2v-8.05c0-.411-.01-.773-.032-1.086a3.42,3.42,0,0,0-.117-.745c-.029-.085-.138-.163-.33-.235a3.945,3.945,0,0,0-.618-.17,2.891,2.891,0,0,0-.522-.064c-.056,0-.085-.085-.085-.256a.539.539,0,0,1,.085-.362l2.556.043q.617.021,1.512-.033t1.491-.052a5.58,5.58,0,0,1,2.2.447,4.2,4.2,0,0,1,1.726,1.321,3.392,3.392,0,0,1,.671,2.129,3.343,3.343,0,0,1-.671,1.874,4.387,4.387,0,0,1-1.821,1.512c-.142.056-.185.128-.128.213a14.894,14.894,0,0,0,2.449,3.748q2.044,2.235,3.322,2.236a.653.653,0,0,1,.064.3.7.7,0,0,1-.064.319,2.079,2.079,0,0,1-.575.063m-7.41-7.538h.532a1.982,1.982,0,0,0,1.055-.341,2.828,2.828,0,0,0,.916-.958,2.713,2.713,0,0,0,.372-1.427q0-2.96-2.981-2.961a5.645,5.645,0,0,0-1.49.149q-.192.043-.224.692t-.032,1.65V55.94q0,.618,1.853.617" transform="translate(-84.237 42.968)" fill="#fff"/>
      <path id="パス_24230" data-name="パス 24230" d="M126.737,68.194a.452.452,0,0,1-.085-.319q0-.3.085-.3a3.266,3.266,0,0,0,.511-.053,2.994,2.994,0,0,0,.6-.16c.185-.071.291-.141.319-.213a3.76,3.76,0,0,0,.117-.766q.032-.469.032-1.129V60.5q0-.659-.032-1.139a3.431,3.431,0,0,0-.117-.756q-.042-.128-.319-.223a4.538,4.538,0,0,0-.6-.16,2.794,2.794,0,0,0-.511-.063q-.085,0-.085-.277a.492.492,0,0,1,.085-.341l2.556.106q.17,0,.788-.032t1.682-.074a1.3,1.3,0,0,1,.043.319c0,.2-.029.3-.085.3a2.364,2.364,0,0,0-.447.074q-.319.075-.6.17c-.184.064-.291.132-.319.2a8.089,8.089,0,0,0-.192,1.981V65.17a8.244,8.244,0,0,0,.192,1.981c.028.056.135.121.319.192a3.632,3.632,0,0,0,.6.17,2.661,2.661,0,0,0,.447.064c.056,0,.085.107.085.32a1.228,1.228,0,0,1-.043.3q-1.065-.042-1.682-.074t-.788-.032Z" transform="translate(-101.035 38.826)" fill="#fff"/>
      <path id="パス_24231" data-name="パス 24231" d="M141.063,64a.43.43,0,0,1-.107-.319c0-.2.035-.3.107-.3a3.121,3.121,0,0,0,.553-.064,4.953,4.953,0,0,0,.66-.17,1.16,1.16,0,0,0,.447-.235,3.086,3.086,0,0,0,.384-1.853q.042-2.469.1-4.44t.1-3.237q.042-1.267.042-1.629a3.138,3.138,0,0,0-.085-.852q-.043-.128-.372-.223a6.238,6.238,0,0,0-.713-.16,3.967,3.967,0,0,0-.6-.063c-.056,0-.085-.1-.085-.3a.455.455,0,0,1,.085-.319q.512.022,1.129.064c.412.029.83.042,1.256.042q.4,0,.884-.031c.319-.022.678-.046,1.075-.075q.171.469,4.216,10.669a.123.123,0,0,0,.085.042.1.1,0,0,0,.107-.085q1.043-2.448,1.874-4.472t1.448-3.6l.852-2.556q.681.043,1.118.064t.65.021q.659,0,1.256-.021t1.129-.064a1.058,1.058,0,0,1,.064.319c0,.2-.036.3-.107.3h-.042a1.911,1.911,0,0,0-.618.138,2.143,2.143,0,0,0-.575.287q-.256.191-.256,1.427l.192,8.645a6.217,6.217,0,0,0,.319,1.959.615.615,0,0,0,.341.235,3.554,3.554,0,0,0,.607.17,2.829,2.829,0,0,0,.479.064q.085,0,.085.3A1.321,1.321,0,0,1,159.1,64q-1.065-.042-1.693-.074t-.841-.032L154.009,64a.491.491,0,0,1-.085-.34q0-.277.085-.277a3.043,3.043,0,0,0,.65-.106,2.732,2.732,0,0,0,.628-.213q.256-.17.256-.916V61.02l-.256-7.5a2.934,2.934,0,0,0-.053-.522q-.054-.287-.117-.511c-.043-.149-.092-.224-.149-.224-.028,0-.064.05-.106.149l-4.451,10.647q-.405.916-.788.916a1.712,1.712,0,0,1-.191-.043l-4.877-12.393q-.064,3-.149,5.356t-.138,3.78q-.053,1.426-.053,1.661a.935.935,0,0,0,.128.553,1.018,1.018,0,0,0,.426.224,5.545,5.545,0,0,0,.713.192,3.183,3.183,0,0,0,.5.074c.056,0,.085.107.085.32a1.228,1.228,0,0,1-.043.3q-1.065-.042-1.682-.074t-.788-.032Z" transform="translate(-108.823 43.019)" fill="#fff"/>
      <path id="パス_24232" data-name="パス 24232" d="M193.558,63.971q-.532,0-1.395-.011t-2.034-.032q-1.172-.021-2.129-.031t-1.7-.011l-2.577.063a.551.551,0,0,1-.064-.34c0-.184.021-.277.064-.277a2.343,2.343,0,0,0,.511-.074,4.764,4.764,0,0,0,.607-.181.622.622,0,0,0,.352-.234,6.627,6.627,0,0,0,.149-2v-8.05q0-.616-.032-1.086a3.448,3.448,0,0,0-.117-.745q-.043-.128-.33-.235a3.951,3.951,0,0,0-.617-.17,2.9,2.9,0,0,0-.522-.064c-.057,0-.085-.085-.085-.256a.531.531,0,0,1,.085-.362q.553.021,1.182.032t1.352.01q.49,0,1.321-.021t2-.064q1.192-.042,2.076-.064t1.48-.021q.042.3.128.713t.213.9q.107.511.181.83t.1.448a.539.539,0,0,1-.384.106q-.277,0-.3-.149a2.367,2.367,0,0,0-.894-1.5,3.17,3.17,0,0,0-1.576-.331h-1.427q-1.852,0-1.874.277c-.029.17-.053.4-.075.7s-.032.66-.032,1.086v3.407q0,.128.916.128h1.129q.724,0,.979-.011a1.33,1.33,0,0,0,.373-.053q.117-.042.458-.128.212-.043.33-.5c.077-.306.145-.557.2-.756.015-.1.121-.149.32-.149a.5.5,0,0,1,.362.107V58.9a.493.493,0,0,1-.341.085c-.185,0-.3-.057-.341-.17q-.085-.3-.149-.511c-.042-.142-.078-.262-.107-.363a1.049,1.049,0,0,0-.159-.34c-.036-.029-.1-.071-.181-.128a7.6,7.6,0,0,0-2.257-.17q-1.533,0-1.533.191v3.3a6.677,6.677,0,0,0,.192,1.937q.064.214,1.448.213h1.022a6.737,6.737,0,0,0,2.683-.362,2.308,2.308,0,0,0,.713-.756,4.953,4.953,0,0,0,.628-1.395c.028-.085.128-.128.3-.128a.781.781,0,0,1,.532.128c-.042.113-.11.287-.2.522s-.181.472-.267.713-.156.447-.212.617q-.128.383-.277.873a5.3,5.3,0,0,0-.192.809" transform="translate(-132.06 43.07)" fill="#fff"/>
      <path id="パス_24233" data-name="パス 24233" d="M221.677,64a.452.452,0,0,1-.085-.319q0-.3.085-.3a3.266,3.266,0,0,0,.511-.053,2.994,2.994,0,0,0,.6-.16c.185-.071.291-.141.319-.213a3.757,3.757,0,0,0,.117-.766q.032-.469.032-1.129V52.8q0-.659-.032-1.139a3.428,3.428,0,0,0-.117-.756c-.028-.085-.135-.16-.319-.223a4.54,4.54,0,0,0-.6-.16,2.8,2.8,0,0,0-.511-.063c-.057,0-.085-.092-.085-.277a.493.493,0,0,1,.085-.341q.192,0,.65.032c.305.021.635.043.99.064s.661.032.916.032q.681,0,1.363-.053t1.107-.075a.842.842,0,0,1,.032.351q-.011.266-.074.266a2.326,2.326,0,0,0-.447.074,6.1,6.1,0,0,0-.6.17q-.277.1-.319.2a8.084,8.084,0,0,0-.192,1.98v3.472l.149.127h.149a1.635,1.635,0,0,0,1.235-.617q1.256-1.384,2.161-2.47t1.5-1.853a2.026,2.026,0,0,0,.511-.809q0-.361-1.214-.362-.085,0-.085-.192a1.285,1.285,0,0,1,.01-.181,1.554,1.554,0,0,1,.032-.16l1.235.085q.618.043,1.044.043.361,0,.8-.032c.291-.021.561-.043.809-.064s.43-.032.543-.032a.7.7,0,0,1,.032.308c-.008.149-.032.224-.075.224a3.02,3.02,0,0,0-1.959.894L227.7,56.25q-.17.192.149.575l5.132,5.643a2.729,2.729,0,0,0,1.086.681,3.558,3.558,0,0,0,1.171.234q.107,0,.107.383a.736.736,0,0,1-.043.234q-1.065-.042-1.725-.074t-.916-.032q-.894,0-1.608.032T229.79,64a.536.536,0,0,1-.085-.362c0-.17.029-.256.085-.256a2.393,2.393,0,0,0,.586-.085q.33-.084.33-.256,0-.681-4.834-5.643a1.2,1.2,0,0,0-.617-.085q-.15,0-.149.17v3.492a8.242,8.242,0,0,0,.192,1.981c.028.056.135.121.319.192a3.618,3.618,0,0,0,.6.17,2.662,2.662,0,0,0,.447.064q.064,0,.074.256A.954.954,0,0,1,226.7,64q-1.065-.042-1.682-.074t-.788-.032Z" transform="translate(-152.726 43.019)" fill="#fff"/>
      <path id="パス_24234" data-name="パス 24234" d="M253.091,63.976a.448.448,0,0,1-.085-.319c0-.2.028-.3.085-.3a2.711,2.711,0,0,0,.66-.106,1.015,1.015,0,0,0,.553-.3,4.726,4.726,0,0,0,.479-.788q.245-.49.522-1.214l3.705-9.518a4.07,4.07,0,0,0,.159-.447q.032-.128.064-.224c.021-.063.067-.174.138-.33a2.252,2.252,0,0,1,.3-.469.621.621,0,0,1,.49-.17l.192.064L264.611,61.1q.192.489.351.873c.107.256.2.476.267.66a.781.781,0,0,0,.373.374,3.122,3.122,0,0,0,.6.255,1.738,1.738,0,0,0,.48.1c.057,0,.085.135.085.4a.509.509,0,0,1-.01.1,1.01,1.01,0,0,1-.032.117q-1.065-.042-1.65-.074t-.692-.032l-2.47.106a.484.484,0,0,1-.075-.351c.007-.177.039-.266.1-.266a2.469,2.469,0,0,0,.639-.106q.383-.107.447-.277a1.564,1.564,0,0,0,.032-.17,1.415,1.415,0,0,0,.011-.171,3.89,3.89,0,0,0-.064-.649,3.02,3.02,0,0,0-.149-.586l-.958-2.64a.172.172,0,0,0-.128-.085q-.83-.064-1.618-.064-.553,0-1.225.032t-1.48.074l-.107.064-.916,2.342a5.463,5.463,0,0,0-.287.894,3.026,3.026,0,0,0-.074.575.5.5,0,0,0,.17.426,1.59,1.59,0,0,0,.617.245,3.178,3.178,0,0,0,.618.1q.064,0,.074.256a.962.962,0,0,1-.032.362l-2.193-.106a7.082,7.082,0,0,0-1.161.011q-.564.053-1.054.1m6.3-6.387q.959,0,1.938-.064l.064-.106-1.725-4.706L257.84,57.46c0,.057.014.085.042.085q.553.022.927.032c.248.008.443.011.585.011" transform="translate(-169.83 43.044)" fill="#fff"/>
      <path id="パス_24235" data-name="パス 24235" d="M280.966,68.772a1.742,1.742,0,0,1-.511-.085,3.01,3.01,0,0,1-.447-.17l-.149-.085a1.169,1.169,0,0,1-.256-.788.922.922,0,0,1,.394-.767,1.491,1.491,0,0,1,.926-.3,1.366,1.366,0,0,1,.873.469,1.388,1.388,0,0,0,.745.447q.6,0,1.214-1.171a5.983,5.983,0,0,0,.49-1.629,13.5,13.5,0,0,0,.192-2.4V52.8q0-.659-.032-1.139a3.446,3.446,0,0,0-.118-.756q-.042-.128-.319-.223a4.536,4.536,0,0,0-.6-.16,2.8,2.8,0,0,0-.511-.063q-.085,0-.085-.277a.494.494,0,0,1,.085-.341q.191,0,.649.032c.305.021.635.043.99.064s.66.032.916.032q.681,0,1.363-.053t1.107-.075a1.35,1.35,0,0,1,.042.319c0,.2-.029.3-.085.3a2.369,2.369,0,0,0-.447.074,6.084,6.084,0,0,0-.6.17q-.277.1-.319.2a8.066,8.066,0,0,0-.192,1.98v9.242a8.131,8.131,0,0,1-.394,2.545,6.924,6.924,0,0,1-1.107,2.118A5.4,5.4,0,0,1,283.1,68.24a4.395,4.395,0,0,1-2.13.532" transform="translate(-184.311 43.019)" fill="#fff"/>
      <path id="パス_24236" data-name="パス 24236" d="M300.957,69.56a.453.453,0,0,1-.085-.319q0-.3.085-.3a3.265,3.265,0,0,0,.511-.053,3,3,0,0,0,.6-.16c.184-.071.291-.141.319-.213a3.76,3.76,0,0,0,.117-.766q.032-.469.032-1.129V63.01q0-.659-.032-1.139a3.431,3.431,0,0,0-.117-.756q-.042-.128-.319-.223a4.543,4.543,0,0,0-.6-.16,2.8,2.8,0,0,0-.511-.063q-.085,0-.085-.277a.492.492,0,0,1,.085-.341l2.556.106q.17,0,.788-.032t1.682-.074a1.3,1.3,0,0,1,.043.319c0,.2-.029.3-.085.3a2.363,2.363,0,0,0-.447.074q-.319.075-.6.17c-.185.064-.291.132-.319.2a8.087,8.087,0,0,0-.192,1.98v3.441a8.242,8.242,0,0,0,.192,1.981c.028.056.135.121.319.192a3.629,3.629,0,0,0,.6.17,2.66,2.66,0,0,0,.447.064c.056,0,.085.107.085.32a1.226,1.226,0,0,1-.043.3q-1.065-.042-1.682-.074t-.788-.032Z" transform="translate(-195.891 37.46)" fill="#fff"/>
      <rect id="長方形_876" data-name="長方形 876" width="3.953" height="3.953" transform="translate(98.501 87.49) rotate(-45)" fill="#fff"/>
      <rect id="長方形_877" data-name="長方形 877" width="3.181" height="3.181" transform="matrix(0.707, -0.707, 0.707, 0.707, 105.192, 93.203)" fill="#fff"/>
      <rect id="長方形_878" data-name="長方形 878" width="2.027" height="2.027" transform="translate(107.201 86.295) rotate(-45)" fill="#fff"/>
      <rect id="長方形_879" data-name="長方形 879" width="2.565" height="2.684" transform="translate(26.86 92.524)" fill="#fff"/>
      <path id="パス_24247" data-name="パス 24247" d="M38.608,53.832c-.839-.679-3.725-.209-4.967-.046-2.006.264-4.7.909-6.687,1.233.106.023,5.263.841,7.4,1.2a10.224,10.224,0,0,0,3.606.031c1.183-.336,1.32-.679,1.225-1.316a1.764,1.764,0,0,0-.575-1.1" transform="translate(31.421 -0.478)" fill="#fff"/>
      <path id="パス_24248" data-name="パス 24248" d="M8.106,53.832c.839-.679,3.725-.209,4.967-.046,2.006.264,4.7.909,6.687,1.233-.106.023-5.263.841-7.4,1.2a10.224,10.224,0,0,1-3.606.031c-1.183-.336-1.32-.679-1.225-1.316a1.764,1.764,0,0,1,.575-1.1" transform="translate(31.595 -0.478)" fill="#fff"/>
      <path id="パス_24249" data-name="パス 24249" d="M46.81,34.372h0L40.928,22.789A16.381,16.381,0,0,0,42.689,17.4a11.027,11.027,0,0,0-3.635-9.754c-.236-.2-.49-.377-.74-.554a6.744,6.744,0,0,0-.092-2.24C36.407-3.412,23.887.7,19.366,3.922a34.193,34.193,0,0,0-8.639,8.893A59.632,59.632,0,0,0,5.693,23.141L0,34.372H0V55.239H5a2.6,2.6,0,0,0,.982,2.053c.374.5,2.182,1.612,6.783.948a18.568,18.568,0,0,0-1.443,1.5H0V80.85H46.81V59.744l-11.73-.123a15.092,15.092,0,0,0-1.316-1.348c3.636.727,5.439.664,7.272-.917.537-.506.549-.713.5-1.965H46.81Zm-32-22.745c3.6-4.169,7.877-7.571,13.393-8.645,2.471-.481,6.443-.968,7.426,2.069a4.083,4.083,0,0,1,.136.724,9.157,9.157,0,0,0-6.447.151c-2.774,1.134-5.7,4.442-3.692,7.493,2.047,3.11,6.143,2.027,8.591.156a11.6,11.6,0,0,0,3.3-3.858c3.761,3.372,3.046,7.751,1.108,11.739H9.146a36.816,36.816,0,0,1,5.663-9.829M35.345,8.36A8.879,8.879,0,0,1,32.037,12c-1.1.691-2.678,1.323-3.842.41-1.69-1.325.356-3.247,1.629-3.909a6.53,6.53,0,0,1,5.52-.138M20.937,56.576c-.932.965-1.807,1.8-1.957,1.938l-.026.023a26.6,26.6,0,0,0-8.427,11.908,25.518,25.518,0,0,1-.408-3.656,34.6,34.6,0,0,0-3.422.795A31.824,31.824,0,0,1,12.972,59.4l-.038.012c.124-.118.257-.226.383-.341q.343-.317.7-.622c.166-.144.339-.28.508-.421.2-.043.4-.086.587-.132a35.048,35.048,0,0,0,4.257-1.122c1.038-.41,1.555-.583,1.582-.5a.5.5,0,0,1-.01.3M39.845,67.583a17.634,17.634,0,0,0-3.192-.68c-.044,1.646-.36,1.127-.638,3.541a26.6,26.6,0,0,0-8.427-11.908l-.026-.023c-.151-.133-1.178-1.19-1.957-1.938a.5.5,0,0,1-.01-.3c.027-.083.544.089,1.582.5A35.048,35.048,0,0,0,31.433,57.9c.19.046.389.089.587.132.169.141.342.277.508.421q.354.306.7.622c.126.115.259.223.383.341L33.57,59.4a31.824,31.824,0,0,1,6.275,8.181m.3-11.731c.018.676-1.211,1.037-1.7,1.175a6.306,6.306,0,0,1-1.722.218,14.589,14.589,0,0,1-3.335-.478c-1.219-.294-4.907-.606-6.326-1.053-.028-.008-.056-.01-.084-.018s-.076-.028-.114-.042c-.009,0-.024-.006-.033-.01l-.025-.011-.056-.02a7.506,7.506,0,0,1-1.429-.552c-.033.188-.058.076-.106.263a.366.366,0,0,1-.335.26h-3.23a.368.368,0,0,1-.335-.26c-.048-.186-.073-.074-.106-.263a7.506,7.506,0,0,1-1.429.552l-.055.02-.025.011c-.009,0-.024.007-.032.01-.039.014-.079.031-.115.042s-.056.01-.084.018c-1.419.447-5.107.759-6.326,1.053a14.589,14.589,0,0,1-3.335.478,6.306,6.306,0,0,1-1.722-.218c-.485-.139-1.714-.5-1.7-1.175-.046-.774-.059-1.551-.059-2.324.006-.674-.02-3.862.88-4.674.946-.853,4.366.362,5.352.722,2.925,1.07,3.8,1.636,6.853,2.979a14.154,14.154,0,0,1,1.866.957c.013-.059.019-.272.034-.332a.368.368,0,0,1,.335-.26h3.23a.368.368,0,0,1,.335.26c.015.06.021.273.035.332a14.718,14.718,0,0,1,1.865-.957,68.223,68.223,0,0,1,6.853-2.979c.986-.361,4.405-1.576,5.352-.722.9.812.874,4,.88,4.674,0,.773-.013,1.55-.059,2.324" transform="translate(31.662 0)" fill="#fff"/>
    </g>
  </g>
</svg>
