<svg xmlns="http://www.w3.org/2000/svg" width="55" height="55" viewBox="0 0 55 55">
  <g id="グループ_1231" data-name="グループ 1231" transform="translate(55 55) rotate(-180)">
    <g id="グループ_505" data-name="グループ 505" transform="translate(0 0)">
      <path id="パス_4" data-name="パス 4" d="M27.5,0A27.5,27.5,0,1,0,55,27.5,27.531,27.531,0,0,0,27.5,0m0,53.1A25.6,25.6,0,1,1,53.1,27.5,25.631,25.631,0,0,1,27.5,53.1" transform="translate(0 0)" fill="#fff"/>
      <path id="パス_5" data-name="パス 5" d="M63.9,59.609a.932.932,0,0,0-.174-.221c-.011-.009-.015-.024-.027-.033l-8.17-6.638a.948.948,0,0,0-1.2,1.471l6.1,4.954H38.448a.948.948,0,1,0,0,1.9H60.433l-6.1,4.955a.948.948,0,1,0,1.2,1.471l8.17-6.638c.011-.009.016-.024.027-.034a.933.933,0,0,0,.174-.221.977.977,0,0,0,.062-.092.909.909,0,0,0,0-.777.984.984,0,0,0-.062-.092" transform="translate(-23.276 -32.59)" fill="#fff"/>
    </g>
  </g>
</svg>
