<svg id="グループ_1915" data-name="グループ 1915" xmlns="http://www.w3.org/2000/svg" width="55" height="55" viewBox="0 0 55 55">
  <g id="グループ_505" data-name="グループ 505" transform="translate(0 0)">
    <path id="パス_4" data-name="パス 4" d="M27.5,55A27.5,27.5,0,1,0,0,27.5,27.531,27.531,0,0,0,27.5,55m0-53.1A25.6,25.6,0,1,1,1.9,27.5,25.631,25.631,0,0,1,27.5,1.9" transform="translate(0 0)" fill="#aea6bc"/>
    <path id="パス_5" data-name="パス 5" d="M.149,8.067a.932.932,0,0,0,.174.221c.011.009.015.024.027.033l8.17,6.638a.948.948,0,0,0,1.2-1.471l-6.1-4.954H25.6a.948.948,0,1,0,0-1.9H3.619l6.1-4.955A.948.948,0,1,0,8.52.213L.35,6.851c-.011.009-.016.024-.027.034a.933.933,0,0,0-.174.221A.977.977,0,0,0,.087,7.2a.909.909,0,0,0,0,.777.984.984,0,0,0,.062.092" transform="translate(14.224 19.914)" fill="#aea6bc"/>
  </g>
</svg>
