<svg xmlns="http://www.w3.org/2000/svg" xmlns:xlink="http://www.w3.org/1999/xlink" width="28" height="28" viewBox="0 0 28 28">
  <defs>
    <clipPath id="clip-path">
      <rect id="長方形_749" data-name="長方形 749" width="28" height="28" transform="translate(-0.23 -0.23)" fill="#cdbc95"/>
    </clipPath>
  </defs>
  <g id="グループ_1435" data-name="グループ 1435" transform="translate(0.23 0.23)">
    <g id="グループ_1434" data-name="グループ 1434" clip-path="url(#clip-path)">
      <path id="パス_23710" data-name="パス 23710" d="M23.794,8H4.861a.861.861,0,0,0,0,1.721H23.794a.861.861,0,0,0,0-1.721" transform="translate(-0.557 -1.115)" fill="#cdbc95"/>
      <path id="パス_23711" data-name="パス 23711" d="M7.721,14a1.721,1.721,0,1,0,1.721,1.721A1.721,1.721,0,0,0,7.721,14" transform="translate(-0.836 -1.951)" fill="#cdbc95"/>
      <path id="パス_23712" data-name="パス 23712" d="M15.721,14a1.721,1.721,0,1,0,1.721,1.721A1.721,1.721,0,0,0,15.721,14" transform="translate(-1.951 -1.951)" fill="#cdbc95"/>
      <path id="パス_23713" data-name="パス 23713" d="M23.721,14a1.721,1.721,0,1,0,1.721,1.721A1.721,1.721,0,0,0,23.721,14" transform="translate(-3.066 -1.951)" fill="#cdbc95"/>
      <path id="パス_23714" data-name="パス 23714" d="M7.721,22a1.721,1.721,0,1,0,1.721,1.721A1.721,1.721,0,0,0,7.721,22" transform="translate(-0.836 -3.066)" fill="#cdbc95"/>
      <path id="パス_23715" data-name="パス 23715" d="M15.721,22a1.721,1.721,0,1,0,1.721,1.721A1.721,1.721,0,0,0,15.721,22" transform="translate(-1.951 -3.066)" fill="#cdbc95"/>
      <path id="パス_23716" data-name="パス 23716" d="M23.721,22a1.721,1.721,0,1,0,1.721,1.721A1.721,1.721,0,0,0,23.721,22" transform="translate(-3.066 -3.066)" fill="#cdbc95"/>
      <path id="パス_23717" data-name="パス 23717" d="M24.1,1.721H20.655V.861a.861.861,0,1,0-1.721,0v.861H8.606V.861a.861.861,0,0,0-1.721,0v.861H3.443A3.446,3.446,0,0,0,0,5.164V24.1A3.446,3.446,0,0,0,3.443,27.54H24.1A3.446,3.446,0,0,0,27.54,24.1V5.164A3.446,3.446,0,0,0,24.1,1.721M25.819,24.1A1.721,1.721,0,0,1,24.1,25.819H3.443A1.721,1.721,0,0,1,1.721,24.1V5.164A1.721,1.721,0,0,1,3.443,3.443H6.885V4.3a.861.861,0,0,0,1.721,0V3.443H18.934V4.3a.861.861,0,1,0,1.721,0V3.443H24.1a1.721,1.721,0,0,1,1.721,1.721Z" fill="#cdbc95"/>
    </g>
  </g>
</svg>
