<svg id="グループ_2139" data-name="グループ 2139" xmlns="http://www.w3.org/2000/svg" xmlns:xlink="http://www.w3.org/1999/xlink" width="28" height="24" viewBox="0 0 28 24">
  <defs>
    <clipPath id="clip-path">
      <rect id="長方形_895" data-name="長方形 895" width="28" height="24" fill="#b19d70"/>
    </clipPath>
  </defs>
  <g id="グループ_2138" data-name="グループ 2138" clip-path="url(#clip-path)">
    <path id="パス_24303" data-name="パス 24303" d="M19.556,10.528h0a1,1,0,0,0-1.414.054L15,13.976V1a1,1,0,0,0-2,0V13.976L9.858,10.582a1,1,0,1,0-1.467,1.359l4.876,5.266a1,1,0,0,0,1.466,0l4.878-5.266a1,1,0,0,0-.055-1.413" fill="#b19d70"/>
    <path id="パス_24304" data-name="パス 24304" d="M26,17v3a2.006,2.006,0,0,1-2,2H4a2.006,2.006,0,0,1-2-2V17a1,1,0,0,0-2,0v3a4,4,0,0,0,4,4H24a4,4,0,0,0,4-4V17a1,1,0,0,0-2,0" fill="#b19d70"/>
  </g>
</svg>
