<svg xmlns="http://www.w3.org/2000/svg" xmlns:xlink="http://www.w3.org/1999/xlink" width="46" height="34" viewBox="0 0 46 34">
  <defs>
    <clipPath id="clip-path">
      <rect id="長方形_845" data-name="長方形 845" width="46" height="34" transform="translate(0 0.5)" fill="#cbbfcb"/>
    </clipPath>
  </defs>
  <g id="グループ_2111" data-name="グループ 2111" transform="translate(0 -0.5)">
    <g id="グループ_1919" data-name="グループ 1919" clip-path="url(#clip-path)">
      <path id="パス_24190" data-name="パス 24190" d="M40.25,0H5.75A5.756,5.756,0,0,0,0,5.75v23A5.756,5.756,0,0,0,5.75,34.5h34.5A5.756,5.756,0,0,0,46,28.75v-23A5.756,5.756,0,0,0,40.25,0M5.75,2.875h34.5a2.893,2.893,0,0,1,.726.1L24.011,19.741a1.44,1.44,0,0,1-2.021,0L5.026,2.979a2.872,2.872,0,0,1,.724-.1M43.125,28.75a2.874,2.874,0,0,1-2.875,2.875H5.75A2.874,2.874,0,0,1,2.875,28.75v-23A2.845,2.845,0,0,1,2.986,5L19.968,21.787a4.327,4.327,0,0,0,6.062,0L43.016,5a2.905,2.905,0,0,1,.109.746Z" fill="#cbbfcb"/>
    </g>
  </g>
</svg>
