<svg xmlns="http://www.w3.org/2000/svg" xmlns:xlink="http://www.w3.org/1999/xlink" width="30.904" height="30.735" viewBox="0 0 30.904 30.735">
  <defs>
    <clipPath id="clip-path">
      <rect id="長方形_859" data-name="長方形 859" width="30.904" height="30.735" transform="translate(0 0)" fill="#312200"/>
    </clipPath>
  </defs>
  <g id="グループ_2025" data-name="グループ 2025" transform="translate(0 0)">
    <g id="グループ_2024" data-name="グループ 2024" clip-path="url(#clip-path)">
      <path id="パス_24213" data-name="パス 24213" d="M22.256.528,19.33,6a12.8,12.8,0,0,0-3.878-.631C8.6,5.368,2.758,11.376.476,14.078A1.981,1.981,0,0,0,.464,16.64a28.467,28.467,0,0,0,9.23,7.378L6.888,29.266a1,1,0,0,0,1.761.942L24.017,1.47A1,1,0,1,0,22.256.528M12.754,18.3a3.964,3.964,0,0,1-1.29-3.24,4.091,4.091,0,0,1,2.116-3.141,3.516,3.516,0,0,1,2.812-.422Zm4.6-8.6a5.521,5.521,0,0,0-4.907.58,6.122,6.122,0,0,0-2.984,4.733A5.975,5.975,0,0,0,11.789,20.1l-1.153,2.156a25.612,25.612,0,0,1-8.048-6.228.987.987,0,0,1,0-1.322C4.98,12.032,9.942,7.368,15.452,7.368a10.674,10.674,0,0,1,2.917.427Z" fill="#312200"/>
      <path id="パス_24214" data-name="パス 24214" d="M22.992,7.638l-.94,1.76a27.884,27.884,0,0,1,6.265,5.309.989.989,0,0,1,0,1.322c-2.392,2.675-7.354,7.339-12.865,7.339a8.06,8.06,0,0,1-.85-.04l-1.01,1.89a11.479,11.479,0,0,0,1.86.15c6.853,0,12.7-6.01,14.977-8.711a1.986,1.986,0,0,0,.008-2.568,30.3,30.3,0,0,0-7.445-6.451" fill="#312200"/>
      <path id="パス_24215" data-name="パス 24215" d="M16.862,19.1v.01l-1.21,2.25a6,6,0,0,0,5.8-5.99,5.869,5.869,0,0,0-.91-3.16l-1.2,2.25a3.909,3.909,0,0,1,.11.91,3.966,3.966,0,0,1-2.59,3.73" fill="#312200"/>
    </g>
  </g>
</svg>
