<svg xmlns="http://www.w3.org/2000/svg" xmlns:xlink="http://www.w3.org/1999/xlink" width="44" height="44" viewBox="0 0 44 44">
  <defs>
    <clipPath id="clip-path">
      <rect id="長方形_865" data-name="長方形 865" width="44" height="44" fill="#cbbfcb"/>
    </clipPath>
  </defs>
  <g id="グループ_2040" data-name="グループ 2040" transform="translate(0 0.344)">
    <g id="グループ_2039" data-name="グループ 2039" transform="translate(0 -0.344)" clip-path="url(#clip-path)">
      <path id="パス_24222" data-name="パス 24222" d="M41.637,17.292l-2.754-2.575.128-3.767a6.165,6.165,0,0,0-6.157-6.372l-.213,0-3.767.128L26.3,1.955a6.165,6.165,0,0,0-9.007,0L14.718,4.709l-3.767-.128-.213,0a6.165,6.165,0,0,0-6.157,6.372l.128,3.767L1.955,17.292a6.164,6.164,0,0,0,0,9.007l2.754,2.575L4.581,32.64a6.165,6.165,0,0,0,6.157,6.372l.213,0,3.767-.128,2.575,2.754a6.165,6.165,0,0,0,9.007,0l2.575-2.754,3.767.128.213,0A6.165,6.165,0,0,0,39.01,32.64l-.128-3.767L41.637,26.3a6.166,6.166,0,0,0,0-9.007m-1.861,7.017-2.754,2.573-.9.846.041,1.237.128,3.767a3.439,3.439,0,0,1-3.434,3.557h-.121l-3.767-.128-1.237-.042-.846.9-2.573,2.754a3.44,3.44,0,0,1-5.027,0l-2.573-2.754-.846-.9-1.237.042-3.767.128h-.121A3.439,3.439,0,0,1,7.3,32.732l.128-3.767.041-1.237-.9-.846L3.816,24.309a3.44,3.44,0,0,1,0-5.027l2.753-2.573.9-.846-.041-1.237L7.3,10.86A3.439,3.439,0,0,1,10.739,7.3h.121l3.767.128,1.237.041.846-.9,2.573-2.753a3.44,3.44,0,0,1,5.027,0l2.573,2.753.846.9,1.237-.041L32.732,7.3h.121a3.439,3.439,0,0,1,3.434,3.557l-.128,3.767-.041,1.237.9.846,2.754,2.573a3.44,3.44,0,0,1,0,5.027" transform="translate(0 0.409)" fill="#cbbfcb"/>
      <path id="パス_24223" data-name="パス 24223" d="M15.073,20.243l-3.04-3.04a1.362,1.362,0,1,0-1.926,1.926l4.484,4.486a1.365,1.365,0,0,0,1.928,0l9.935-9.935a1.363,1.363,0,0,0-1.928-1.926l-8.489,8.489a.682.682,0,0,1-.963,0" transform="translate(3.516 4.521)" fill="#cbbfcb"/>
    </g>
  </g>
</svg>
