<svg xmlns="http://www.w3.org/2000/svg" xmlns:xlink="http://www.w3.org/1999/xlink" width="28.107" height="25.232" viewBox="0 0 28.107 25.232">
  <defs>
    <clipPath id="clip-path">
      <rect id="長方形_757" data-name="長方形 757" width="28.107" height="25.232" transform="translate(0 0)" fill="#654d65"/>
    </clipPath>
  </defs>
  <g id="グループ_1439" data-name="グループ 1439" transform="translate(0 0)">
    <g id="グループ_1438" data-name="グループ 1438" clip-path="url(#clip-path)">
      <path id="パス_23664" data-name="パス 23664" d="M25.589,2.094a8.221,8.221,0,0,0-11.375.4L1.867,14.845A6.138,6.138,0,0,0,1.2,22.884a6.005,6.005,0,0,0,9.006.592L22.776,10.907a4.153,4.153,0,0,0,.306-5.661,4,4,0,0,0-5.8-.155L6.671,15.7a1,1,0,1,0,1.414,1.414l8.161-8.16,2.36-2.36a2.088,2.088,0,0,1,2.653-.308,2.005,2.005,0,0,1,.261,3.05l-2.446,2.447-7.128,7.127L8.952,21.9a4.152,4.152,0,0,1-5.661.306,4,4,0,0,1-.155-5.8l3.153-3.154,5.834-5.833,3.6-3.6a6.137,6.137,0,0,1,8.039-.667,6.006,6.006,0,0,1,.592,9.006L13.742,22.769a1,1,0,0,0,1.415,1.414L25.763,13.577a8,8,0,0,0-.174-11.483" fill="#654d65"/>
    </g>
  </g>
</svg>
