<svg xmlns="http://www.w3.org/2000/svg" xmlns:xlink="http://www.w3.org/1999/xlink" width="31" height="42" viewBox="0 0 31 42">
  <defs>
    <clipPath id="clip-path">
      <rect id="長方形_848" data-name="長方形 848" width="31" height="42" transform="translate(0 -0.364)" fill="#cbbfcb"/>
    </clipPath>
  </defs>
  <g id="グループ_2110" data-name="グループ 2110" transform="translate(0 0.364)">
    <g id="グループ_1925" data-name="グループ 1925" clip-path="url(#clip-path)">
      <path id="パス_24199" data-name="パス 24199" d="M7.3,16.6H20.312a1.3,1.3,0,0,0,0-2.6H7.3a1.3,1.3,0,1,0,0,2.6" transform="translate(1.807 4.216)" fill="#cbbfcb"/>
      <path id="パス_24200" data-name="パス 24200" d="M7.3,20.6H20.312a1.3,1.3,0,1,0,0-2.6H7.3a1.3,1.3,0,0,0,0,2.6" transform="translate(1.807 5.42)" fill="#cbbfcb"/>
      <path id="パス_24201" data-name="パス 24201" d="M7.3,24.6H20.312a1.3,1.3,0,1,0,0-2.6H7.3a1.3,1.3,0,0,0,0,2.6" transform="translate(1.807 6.625)" fill="#cbbfcb"/>
      <path id="パス_24202" data-name="パス 24202" d="M29.7,9.108,22.119,1.522A5.21,5.21,0,0,0,18.437,0H5.2A5.2,5.2,0,0,0,0,5.2V36.431a5.2,5.2,0,0,0,5.2,5.2H26.022a5.2,5.2,0,0,0,5.2-5.2V12.79A5.21,5.21,0,0,0,29.7,9.108m-1.08,27.323a2.61,2.61,0,0,1-2.6,2.6H5.2a2.61,2.61,0,0,1-2.6-2.6V5.2A2.61,2.61,0,0,1,5.2,2.6H18.437a2.61,2.61,0,0,1,1.848.768l.533.533,7.039,7.039a2.61,2.61,0,0,1,.768,1.848Z" transform="translate(0 0)" fill="#cbbfcb"/>
      <path id="パス_24203" data-name="パス 24203" d="M25.489,9.108,17.9,1.522A5.21,5.21,0,0,0,14.221,0H14V9.108a3.915,3.915,0,0,0,3.9,3.9h9.108V12.79a5.21,5.21,0,0,0-1.522-3.682m-7.586,1.3a1.3,1.3,0,0,1-1.3-1.3V2.6l7.807,7.807Z" transform="translate(4.216 0)" fill="#cbbfcb"/>
    </g>
  </g>
</svg>
