<svg id="グループ_2109" data-name="グループ 2109" xmlns="http://www.w3.org/2000/svg" xmlns:xlink="http://www.w3.org/1999/xlink" width="39.944" height="47.041" viewBox="0 0 39.944 47.041">
  <defs>
    <clipPath id="clip-path">
      <rect id="長方形_846" data-name="長方形 846" width="39.944" height="47.041" fill="#cbbfcb"/>
    </clipPath>
  </defs>
  <g id="グループ_1921" data-name="グループ 1921" clip-path="url(#clip-path)">
    <path id="パス_24191" data-name="パス 24191" d="M22.17,10H7.47a1.47,1.47,0,1,0,0,2.94h14.7a1.47,1.47,0,0,0,0-2.94" transform="translate(2.82 4.7)" fill="#cbbfcb"/>
    <path id="パス_24192" data-name="パス 24192" d="M22.17,14H7.47a1.47,1.47,0,1,0,0,2.94h14.7a1.47,1.47,0,0,0,0-2.94" transform="translate(2.82 6.581)" fill="#cbbfcb"/>
    <path id="パス_24193" data-name="パス 24193" d="M22.17,18H7.47a1.47,1.47,0,1,0,0,2.94h14.7a1.47,1.47,0,0,0,0-2.94" transform="translate(2.82 8.461)" fill="#cbbfcb"/>
    <path id="パス_24194" data-name="パス 24194" d="M7.47,24.94h5.88a1.47,1.47,0,0,0,0-2.94H7.47a1.47,1.47,0,0,0,0,2.94" transform="translate(2.82 10.341)" fill="#cbbfcb"/>
    <path id="パス_24195" data-name="パス 24195" d="M27.609,20.961l-9.9,9.9a2.941,2.941,0,0,0-.71,1.15L15.6,36.2a.735.735,0,0,0,.929.931l4.184-1.4a2.937,2.937,0,0,0,1.15-.71l9.9-9.905a2.94,2.94,0,0,0-4.157-4.157" transform="translate(7.314 9.448)" fill="#cbbfcb"/>
    <path id="パス_24196" data-name="パス 24196" d="M29.4,2.94H23.256A4.425,4.425,0,0,0,19.11,0H16.17a4.425,4.425,0,0,0-4.146,2.94H5.88A5.88,5.88,0,0,0,0,8.82V41.161a5.88,5.88,0,0,0,5.88,5.88H19.11a1.47,1.47,0,0,0,0-2.94H5.88a2.949,2.949,0,0,1-2.94-2.94V8.82A2.949,2.949,0,0,1,5.88,5.88h6.145A4.425,4.425,0,0,0,16.17,8.82h2.94a4.425,4.425,0,0,0,4.146-2.94H29.4a2.949,2.949,0,0,1,2.94,2.94v16.17a1.47,1.47,0,0,0,2.94,0V8.82A5.88,5.88,0,0,0,29.4,2.94M19.11,5.88H16.17a1.47,1.47,0,0,1,0-2.94h2.94a1.47,1.47,0,0,1,0,2.94" fill="#cbbfcb"/>
  </g>
</svg>
