<svg id="グループ_1313" data-name="グループ 1313" xmlns="http://www.w3.org/2000/svg" xmlns:xlink="http://www.w3.org/1999/xlink" width="97.386" height="127.654" viewBox="0 0 97.386 127.654">
  <defs>
    <clipPath id="clip-path">
      <rect id="長方形_639" data-name="長方形 639" width="97.387" height="127.654" fill="#aea6bc"/>
    </clipPath>
  </defs>
  <g id="グループ_1313-2" data-name="グループ 1313" clip-path="url(#clip-path)">
    <path id="パス_23669" data-name="パス 23669" d="M91.441,64.786A7.459,7.459,0,0,0,85.5,66.038a7.48,7.48,0,0,0-11-2.171,8.318,8.318,0,0,0-2.522-2.617V12.8A12.817,12.817,0,0,0,59.179,0H12.8A12.817,12.817,0,0,0,0,12.8v86.49a12.817,12.817,0,0,0,12.8,12.8H44.094l3.711,3.8v9.684a2.077,2.077,0,1,0,4.155,0V115.045a2.08,2.08,0,0,0-.591-1.452l-7.94-8.127A22.088,22.088,0,0,1,38.386,97.3L30.972,75.836a3.017,3.017,0,0,1,3.614-3.905A12.007,12.007,0,0,1,41.9,77.494l8.25,14.252a2.077,2.077,0,0,0,3.875-1.041V37.726a3.343,3.343,0,1,1,6.687,0V69.374a2.077,2.077,0,0,0,4.155,0V66.943a2.863,2.863,0,0,1,3.457-2.8,4.09,4.09,0,0,1,3.228,3.983v3.544a2.077,2.077,0,0,0,4.155,0v-1.84a3.343,3.343,0,1,1,6.687,0v4.134a2.077,2.077,0,0,0,4.155,0v-1.84a3.343,3.343,0,1,1,6.687,0V95.185a22.921,22.921,0,0,1-2.97,11.273L86.108,113.8a2.088,2.088,0,0,0-.269,1.023v10.754a2.077,2.077,0,0,0,4.155,0V115.37l3.884-6.865a27.091,27.091,0,0,0,3.508-13.32V72.121a7.533,7.533,0,0,0-5.946-7.335M64.863,60.534V37.726a7.5,7.5,0,1,0-15,0V82.97l-4.375-7.558a16.188,16.188,0,0,0-9.857-7.5,7.174,7.174,0,0,0-8.591,9.283l7.414,21.465a26.28,26.28,0,0,0,5.588,9.281H12.8a8.657,8.657,0,0,1-8.648-8.648V12.8A8.658,8.658,0,0,1,12.8,4.154H59.179A8.658,8.658,0,0,1,67.827,12.8V59.925a6.954,6.954,0,0,0-2.963.609" transform="translate(0 0.001)" fill="#aea6bc"/>
    <path id="パス_23670" data-name="パス 23670" d="M121.36,46.374H105.734a2.077,2.077,0,1,0,0,4.155H121.36a2.077,2.077,0,1,0,0-4.155" transform="translate(-77.555 -34.697)" fill="#aea6bc"/>
  </g>
</svg>
