<svg xmlns="http://www.w3.org/2000/svg" xmlns:xlink="http://www.w3.org/1999/xlink" width="30.935" height="27.681" viewBox="0 0 30.935 27.681">
  <defs>
    <clipPath id="clip-path">
      <rect id="長方形_787" data-name="長方形 787" width="30.935" height="27.681" fill="#fff"/>
    </clipPath>
  </defs>
  <g id="グループ_1600" data-name="グループ 1600" transform="translate(0 0)">
    <g id="グループ_1599" data-name="グループ 1599" transform="translate(0 0)" clip-path="url(#clip-path)">
      <path id="パス_23734" data-name="パス 23734" d="M28.294,2.593a9.128,9.128,0,0,0-12.212-.481.97.97,0,0,1-1.228,0,9.128,9.128,0,0,0-12.208.477,9.4,9.4,0,0,0,.141,13.218l11.3,11.3a1.948,1.948,0,0,0,2.755,0l11.3-11.3a9.406,9.406,0,0,0,.146-13.214M26.83,14.371,16.156,25.045a.974.974,0,0,1-1.378,0L4.125,14.392A7.535,7.535,0,0,1,1.867,9.817,7.236,7.236,0,0,1,5.957,2.6a6.687,6.687,0,0,1,3-.655h.06a7.183,7.183,0,0,1,5.077,2.1l.209.209a1.651,1.651,0,0,0,2.336,0,7.559,7.559,0,0,1,5.439-2.31A7.146,7.146,0,0,1,27.407,4.5a7.335,7.335,0,0,1-.577,9.876" transform="translate(0 0)" fill="#fff"/>
    </g>
  </g>
</svg>
