<svg xmlns="http://www.w3.org/2000/svg" xmlns:xlink="http://www.w3.org/1999/xlink" width="22.281" height="19.938" viewBox="0 0 22.281 19.938">
  <defs>
    <clipPath id="clip-path">
      <rect id="長方形_837" data-name="長方形 837" width="22.281" height="19.938" fill="#b19d70"/>
    </clipPath>
  </defs>
  <g id="グループ_1915" data-name="グループ 1915" clip-path="url(#clip-path)">
    <path id="パス_24187" data-name="パス 24187" d="M20.379,1.868a6.574,6.574,0,0,0-8.8-.346.7.7,0,0,1-.884,0A6.574,6.574,0,0,0,1.9,1.865a6.774,6.774,0,0,0,.1,9.521l8.142,8.142a1.4,1.4,0,0,0,1.984,0l8.141-8.142a6.775,6.775,0,0,0,.105-9.518m-1.054,8.483-7.688,7.688a.7.7,0,0,1-.992,0L2.971,10.366a5.427,5.427,0,0,1-1.627-3.3,5.212,5.212,0,0,1,2.946-5.2A4.817,4.817,0,0,1,6.448,1.4h.043a5.174,5.174,0,0,1,3.657,1.514l.151.151a1.189,1.189,0,0,0,1.683,0A5.445,5.445,0,0,1,15.9,1.4,5.147,5.147,0,0,1,19.74,3.238a5.283,5.283,0,0,1-.416,7.113" transform="translate(0 0)" fill="#b19d70"/>
  </g>
</svg>
