<svg xmlns="http://www.w3.org/2000/svg" xmlns:xlink="http://www.w3.org/1999/xlink" width="116.62" height="116.619" viewBox="0 0 116.62 116.619">
  <defs>
    <clipPath id="clip-path">
      <rect id="長方形_641" data-name="長方形 641" width="116.62" height="116.619" fill="#aea6bc"/>
    </clipPath>
  </defs>
  <g id="グループ_1316" data-name="グループ 1316" clip-path="url(#clip-path)">
    <path id="パス_23672" data-name="パス 23672" d="M7.618,45.7H16.78V73.351A13.844,13.844,0,0,0,30.609,87.18H89.935a13.844,13.844,0,0,0,13.829-13.829V45.7h9.161a4.89,4.89,0,0,0,4.884-4.885V35.192a4.89,4.89,0,0,0-4.884-4.885h-9.161V28.99a8.728,8.728,0,0,0-5.83-8.226L77.961,13.749A53.16,53.16,0,0,0,66.446,11.1a7.27,7.27,0,1,0-12.348,0,53.16,53.16,0,0,0-11.515,2.647L22.609,20.765A8.729,8.729,0,0,0,16.78,28.99v1.317H7.618a4.89,4.89,0,0,0-4.885,4.885v5.624A4.89,4.89,0,0,0,7.618,45.7M99.957,73.351A10.032,10.032,0,0,1,89.935,83.372H30.609A10.032,10.032,0,0,1,20.587,73.351V34.114h79.37Zm12.969-39.237A1.079,1.079,0,0,1,114,35.192v5.624a1.079,1.079,0,0,1-1.077,1.078h-9.161V34.114ZM60.271,3.807A3.462,3.462,0,1,1,56.81,7.27a3.466,3.466,0,0,1,3.462-3.462M23.87,24.356l19.974-7.016a49.747,49.747,0,0,1,32.855,0l19.973,7.016a4.917,4.917,0,0,1,3.285,4.633v1.317H20.587V28.99a4.919,4.919,0,0,1,3.283-4.634M6.54,35.192a1.079,1.079,0,0,1,1.078-1.078H16.78v7.779H7.618A1.079,1.079,0,0,1,6.54,40.815Z" transform="translate(-1.962 0)" fill="#aea6bc"/>
    <path id="パス_23673" data-name="パス 23673" d="M114.716,340.8H98.526a10.343,10.343,0,0,0,1.521-2.977,12.563,12.563,0,0,0-1.51-10.815L92.7,318.386a1.975,1.975,0,0,0-3.153,0l-5.835,8.624a12.62,12.62,0,0,0-1.476,10.92,10,10,0,0,0,1.47,2.873h-18a10.343,10.343,0,0,0,1.521-2.977,12.57,12.57,0,0,0-1.51-10.815l-5.836-8.624a1.975,1.975,0,0,0-3.153,0L50.9,327.011a12.625,12.625,0,0,0-1.476,10.919,10.012,10.012,0,0,0,1.47,2.873h-18a10.336,10.336,0,0,0,1.521-2.977,12.562,12.562,0,0,0-1.509-10.815l-5.835-8.624a1.9,1.9,0,0,0-3.153,0l-5.836,8.625a12.617,12.617,0,0,0-1.475,10.919,10.012,10.012,0,0,0,1.47,2.873H1.9a1.9,1.9,0,1,0,0,3.807H114.716a1.9,1.9,0,1,0,0-3.807m-89.276,0a5.631,5.631,0,0,1-5.244-4.143,8.731,8.731,0,0,1,1.038-7.515l4.26-6.294,4.258,6.294a8.789,8.789,0,0,1,1.005,7.62,5.588,5.588,0,0,1-5.21,4.038Zm32.815,0a5.631,5.631,0,0,1-5.244-4.142,8.739,8.739,0,0,1,1.039-7.517l4.259-6.294,4.26,6.294a8.8,8.8,0,0,1,1.005,7.621,5.588,5.588,0,0,1-5.211,4.038Zm32.816,0a5.631,5.631,0,0,1-5.244-4.142,8.735,8.735,0,0,1,1.038-7.517l4.259-6.294,4.259,6.294a8.79,8.79,0,0,1,1.005,7.62,5.588,5.588,0,0,1-5.211,4.038Z" transform="translate(0 -227.991)" fill="#aea6bc"/>
  </g>
</svg>
