<svg xmlns="http://www.w3.org/2000/svg" xmlns:xlink="http://www.w3.org/1999/xlink" width="33" height="38" viewBox="0 0 33 38">
  <defs>
    <clipPath id="clip-path">
      <rect id="長方形_892" data-name="長方形 892" width="33" height="38" transform="translate(0 -0.368)" fill="#aea6bc"/>
    </clipPath>
  </defs>
  <g id="グループ_2119" data-name="グループ 2119" transform="translate(0 0.368)">
    <g id="グループ_2118" data-name="グループ 2118" clip-path="url(#clip-path)">
      <path id="パス_24297" data-name="パス 24297" d="M9.176,12.352h11.76a1.176,1.176,0,1,0,0-2.352H9.176a1.176,1.176,0,1,0,0,2.352" transform="translate(1.408 1.76)" fill="#aea6bc"/>
      <path id="パス_24298" data-name="パス 24298" d="M9.176,16.352h11.76a1.176,1.176,0,1,0,0-2.352H9.176a1.176,1.176,0,1,0,0,2.352" transform="translate(1.408 2.464)" fill="#aea6bc"/>
      <path id="パス_24299" data-name="パス 24299" d="M9.176,20.352h11.76a1.176,1.176,0,1,0,0-2.352H9.176a1.176,1.176,0,0,0,0,2.352" transform="translate(1.408 3.168)" fill="#aea6bc"/>
      <path id="パス_24300" data-name="パス 24300" d="M28.224,0H4.7A4.709,4.709,0,0,0,0,4.7V32.928a4.709,4.709,0,0,0,4.7,4.7h23.52a4.709,4.709,0,0,0,4.7-4.7V4.7a4.709,4.709,0,0,0-4.7-4.7M18.816,4.7h-4.7V2.352h4.7ZM24.7,7.056a1.176,1.176,0,0,1,1.176,1.176V29.4A1.176,1.176,0,0,1,24.7,30.576H8.232A1.176,1.176,0,0,1,7.056,29.4V8.232A1.176,1.176,0,0,1,8.232,7.056Zm5.88,25.872a2.351,2.351,0,0,1-2.352,2.352H4.7a2.351,2.351,0,0,1-2.352-2.352V4.7A2.351,2.351,0,0,1,4.7,2.352H11.76V4.7H8.232A3.532,3.532,0,0,0,4.7,8.232V29.4a3.532,3.532,0,0,0,3.528,3.528H24.7A3.532,3.532,0,0,0,28.224,29.4V8.232A3.532,3.532,0,0,0,24.7,4.7H21.168V2.352h7.056A2.351,2.351,0,0,1,30.576,4.7Z" fill="#aea6bc"/>
    </g>
  </g>
</svg>
