<svg xmlns="http://www.w3.org/2000/svg" xmlns:xlink="http://www.w3.org/1999/xlink" width="46" height="52" viewBox="0 0 46 52">
  <defs>
    <clipPath id="clip-path">
      <rect id="長方形_844" data-name="長方形 844" width="46" height="52" transform="translate(-0.239)" fill="#cbbfcb"/>
    </clipPath>
  </defs>
  <g id="グループ_2112" data-name="グループ 2112" transform="translate(0.239)">
    <g id="グループ_1917" data-name="グループ 1917" clip-path="url(#clip-path)">
      <path id="パス_24188" data-name="パス 24188" d="M39.224,19.612H13.075v-6.2A10.031,10.031,0,0,1,21.6,3.35,9.819,9.819,0,0,1,32.59,11.7a1.612,1.612,0,0,0,1.6,1.378,1.645,1.645,0,0,0,1.633-1.862A13.076,13.076,0,0,0,22.016.028,13.369,13.369,0,0,0,9.806,13.519v6.093H6.537A6.544,6.544,0,0,0,0,26.149V45.761A6.544,6.544,0,0,0,6.537,52.3H39.224a6.544,6.544,0,0,0,6.537-6.537V26.149a6.544,6.544,0,0,0-6.537-6.537m3.269,26.149a3.268,3.268,0,0,1-3.269,3.269H6.537a3.268,3.268,0,0,1-3.269-3.269V26.149a3.268,3.268,0,0,1,3.269-3.269H39.224a3.268,3.268,0,0,1,3.269,3.269Z" transform="translate(0 0)" fill="#cbbfcb"/>
      <path id="パス_24189" data-name="パス 24189" d="M18.1,16.18A6.531,6.531,0,0,0,14.9,28.844v5.133a1.634,1.634,0,0,0,3.269,0V28.844A6.527,6.527,0,0,0,18.1,16.18m-1.559,9.626a3.269,3.269,0,1,1,3.269-3.269,3.272,3.272,0,0,1-3.269,3.269" transform="translate(6.343 10.149)" fill="#cbbfcb"/>
    </g>
  </g>
</svg>
