<svg id="グループ_1287" data-name="グループ 1287" xmlns="http://www.w3.org/2000/svg" xmlns:xlink="http://www.w3.org/1999/xlink" width="32" height="37" viewBox="0 0 32 37">
  <defs>
    <clipPath id="clip-path">
      <rect id="長方形_627" data-name="長方形 627" width="32" height="37" fill="#b19d70"/>
    </clipPath>
  </defs>
  <g id="グループ_1286" data-name="グループ 1286" clip-path="url(#clip-path)">
    <path id="パス_23653" data-name="パス 23653" d="M27.663,13.832H9.221V9.459a7.074,7.074,0,0,1,6.01-7.1,6.925,6.925,0,0,1,7.754,5.887,1.137,1.137,0,0,0,1.13.972,1.16,1.16,0,0,0,1.151-1.313A9.222,9.222,0,0,0,15.527.02,9.429,9.429,0,0,0,6.916,9.535v4.3H4.611A4.615,4.615,0,0,0,0,18.442V32.274a4.615,4.615,0,0,0,4.611,4.611H27.663a4.615,4.615,0,0,0,4.611-4.611V18.442a4.615,4.615,0,0,0-4.611-4.611m2.305,18.442a2.3,2.3,0,0,1-2.305,2.305H4.611a2.3,2.3,0,0,1-2.305-2.305V18.442a2.3,2.3,0,0,1,2.305-2.305H27.663a2.3,2.3,0,0,1,2.305,2.305Z" transform="translate(0 0)" fill="#b19d70"/>
    <path id="パス_23654" data-name="パス 23654" d="M15.71,16.127a4.606,4.606,0,0,0-2.252,8.932v3.62a1.153,1.153,0,0,0,2.305,0v-3.62a4.6,4.6,0,0,0-.053-8.932m-1.1,6.789a2.305,2.305,0,1,1,2.305-2.305,2.308,2.308,0,0,1-2.305,2.305" transform="translate(1.526 2.442)" fill="#b19d70"/>
  </g>
</svg>
