<svg id="グループ_2575" data-name="グループ 2575" xmlns="http://www.w3.org/2000/svg" xmlns:xlink="http://www.w3.org/1999/xlink" width="31.538" height="37" viewBox="0 0 31.538 37">
  <defs>
    <clipPath id="clip-path">
      <rect id="長方形_987" data-name="長方形 987" width="31.538" height="37" fill="#b19d70"/>
    </clipPath>
  </defs>
  <g id="グループ_2574" data-name="グループ 2574" clip-path="url(#clip-path)">
    <path id="パス_24625" data-name="パス 24625" d="M118,1.857V12.564h2.413V2.413h17.022l-5.412,3.663a2.215,2.215,0,0,0-.975,1.842V28.6H120.413V20.382H118V29.16a1.856,1.856,0,0,0,1.857,1.857h11.2V36.14a.86.86,0,0,0,1.337.715l7.529-5.094a2.484,2.484,0,0,0,1.091-2.052V1.792A1.792,1.792,0,0,0,139.22,0H119.857A1.856,1.856,0,0,0,118,1.857" transform="translate(-109.474)" fill="#b19d70"/>
    <path id="パス_24626" data-name="パス 24626" d="M5.619,161a.348.348,0,0,0-.2-.311.331.331,0,0,0-.361.051L.374,164.7a1.063,1.063,0,0,0,0,1.618l4.682,3.967a.333.333,0,0,0,.361.051.348.348,0,0,0,.2-.311V167.6H18.357a1.056,1.056,0,0,0,1.055-1.055v-2.081a1.056,1.056,0,0,0-1.055-1.055H5.627Z" transform="translate(0 -149.046)" fill="#b19d70"/>
  </g>
</svg>
