<svg xmlns="http://www.w3.org/2000/svg" xmlns:xlink="http://www.w3.org/1999/xlink" width="19.296" height="25" viewBox="0 0 19.296 25">
  <defs>
    <clipPath id="clip-path">
      <rect id="長方形_852" data-name="長方形 852" width="19.296" height="25" fill="#0071e2"/>
    </clipPath>
  </defs>
  <g id="グループ_1911" data-name="グループ 1911" transform="translate(0 0)">
    <g id="グループ_1910" data-name="グループ 1910" transform="translate(0 0)" clip-path="url(#clip-path)">
      <path id="パス_24256" data-name="パス 24256" d="M9.648,0A9.648,9.648,0,0,0,0,9.648c0,5.026,5.889,12.014,8.465,14.831a1.6,1.6,0,0,0,2.365,0c2.576-2.816,8.465-9.8,8.465-14.831A9.648,9.648,0,0,0,9.648,0M1.608,9.648a8.04,8.04,0,0,1,16.08,0c0,3.861-4.429,9.69-7.439,13.084a.8.8,0,0,1-1.2,0C6.036,19.338,1.608,13.509,1.608,9.648" transform="translate(0 0)" fill="#0071e2"/>
      <path id="パス_24257" data-name="パス 24257" d="M10.824,6a4.824,4.824,0,1,0,4.824,4.824A4.824,4.824,0,0,0,10.824,6m0,8.04a3.216,3.216,0,1,1,3.216-3.216,3.219,3.219,0,0,1-3.216,3.216" transform="translate(-1.176 -1.176)" fill="#0071e2"/>
    </g>
  </g>
</svg>
