<svg id="グループ_1315" data-name="グループ 1315" xmlns="http://www.w3.org/2000/svg" xmlns:xlink="http://www.w3.org/1999/xlink" width="145.636" height="92.503" viewBox="0 0 145.636 92.503">
  <defs>
    <clipPath id="clip-path">
      <rect id="長方形_640" data-name="長方形 640" width="145.636" height="92.503" fill="#aea6bc"/>
    </clipPath>
  </defs>
  <g id="グループ_1314" data-name="グループ 1314" clip-path="url(#clip-path)">
    <path id="パス_23671" data-name="パス 23671" d="M144.054,68.85H130.825V3.162h13.229a1.581,1.581,0,0,0,0-3.163H129.244a1.581,1.581,0,0,0-1.581,1.581V7.611h-19.07L93.606,2.428a42.324,42.324,0,0,0-22.657-1.4L61.6,3.021a19.133,19.133,0,0,0-8.926,4.59H18.31V1.58A1.581,1.581,0,0,0,16.729,0H1.581a1.581,1.581,0,1,0,0,3.163H15.147V68.85H1.581a1.581,1.581,0,0,0,0,3.163H16.729a1.581,1.581,0,0,0,1.581-1.581V63.27h8.172L25.634,65.3a8.3,8.3,0,0,0,4.457,10.844l.125.053,0,0a8.223,8.223,0,0,0,5.964.153,8.3,8.3,0,0,0,5.079,8.227l.125.053,0,0a8.242,8.242,0,0,0,3.181.639,8.342,8.342,0,0,0,5.047-1.708,8.265,8.265,0,0,0,4.661,5.018l.125.053,0,0a8.242,8.242,0,0,0,3.181.639,8.345,8.345,0,0,0,5.52-2.1,8.276,8.276,0,0,0,4.524,4.628l.12.049A8.29,8.29,0,0,0,78.6,87.4l2.609-6.253,6.874,4.938a8.567,8.567,0,0,0,4.789,1.465,8.656,8.656,0,0,0,7.261-3.94,8.565,8.565,0,0,0,1.353-6.177,8.518,8.518,0,0,0,2.355.335,8.754,8.754,0,0,0,7.81-12.6h16.014v5.268a1.581,1.581,0,0,0,1.581,1.581h14.811a1.581,1.581,0,0,0,0-3.163M31.436,73.28l-.125-.053a5.136,5.136,0,0,1-2.758-6.71l1.756-4.208.005-.013,1.553-3.723A5.1,5.1,0,0,1,34.649,55.8a5.029,5.029,0,0,1,1.92-.382,5.524,5.524,0,0,1,2.132.445,5.135,5.135,0,0,1,2.758,6.709L39.989,66.1,38.14,70.533a5.129,5.129,0,0,1-6.7,2.747m11.171,8.435-.125-.053a5.13,5.13,0,0,1-2.76-6.708l1.341-3.213v0l.417-1,4.384-10.507A5.1,5.1,0,0,1,50.6,57.1a5.434,5.434,0,0,1,2.1.425,5.134,5.134,0,0,1,2.758,6.708l-.645,1.547L54.8,65.8l-2.2,5.27-3.291,7.888a5.133,5.133,0,0,1-6.708,2.759m13.018,4-.125-.053a5.135,5.135,0,0,1-2.758-6.708l2.783-6.672L57.729,67a5.1,5.1,0,0,1,4.732-3.12,5.435,5.435,0,0,1,2.1.425,5.128,5.128,0,0,1,2.758,6.708L62.334,82.959a5.136,5.136,0,0,1-6.71,2.759m20.055.463a5.13,5.13,0,0,1-6.71,2.758l-.125-.052a5.135,5.135,0,0,1-2.758-6.709L69.4,74.234A5.1,5.1,0,0,1,74.138,71.1a5.444,5.444,0,0,1,2.1.425,5.136,5.136,0,0,1,2.76,6.708Zm32.716-14a5.465,5.465,0,0,1-7.582,1.492L86.9,64.343a1.582,1.582,0,0,0-1.763,2.627L88.5,69.222l.009.006,7.506,5.037a5.433,5.433,0,0,1,2.318,3.481,5.524,5.524,0,0,1-.9,4.219,5.469,5.469,0,0,1-7.542,1.522L82.35,78.074a8.353,8.353,0,0,0-5.023-9.518,8.262,8.262,0,0,0-6.461.039,8.416,8.416,0,0,0-11.893-7.124,8.4,8.4,0,0,0-5.181-6.918,8.305,8.305,0,0,0-9.628,2.426A8.465,8.465,0,0,0,39.793,52.9a8.3,8.3,0,0,0-10.845,4.46L27.8,60.107H18.31V10.774H49.9a19.175,19.175,0,0,0-2.022,3.7l-8.637,21a4.7,4.7,0,0,0,4.349,6.49h2.627a16.644,16.644,0,0,0,13.615-7.079,42.309,42.309,0,0,0,4.92-9.1l.19.171c4.842,4.4,16.11,14.643,40.192,3.385L119.807,38.8a5.429,5.429,0,0,1,2.316,3.482,5.518,5.518,0,0,1-.9,4.219,5.464,5.464,0,0,1-7.569,1.5l-6.622-4.443-.9-.6h0l-1.887-1.266a1.582,1.582,0,0,0-1.763,2.627l1.889,1.267,7.5,5.037.029.018,1.859,1.247a5.536,5.536,0,0,1-6.161,9.2l-8.472-5.684-2.817-1.891,0,0-1.475-.99a1.582,1.582,0,0,0-1.763,2.627l13.909,9.332a5.5,5.5,0,0,1,1.414,7.7M117.3,62a9.14,9.14,0,0,0,.577-.764,8.64,8.64,0,0,0,.219-9.268c.083-.014.165-.026.248-.043a8.652,8.652,0,0,0,5.576-3.775,8.627,8.627,0,0,0-2.38-11.988l-15.436-9.956-.026-.015c-.026-.016-.053-.031-.08-.046l-.06-.032-.075-.034-.07-.029-.069-.023-.078-.023-.069-.015c-.026-.006-.053-.012-.079-.016l-.076-.009-.073-.007c-.028,0-.057,0-.085,0H105.2c-.03,0-.06,0-.09.006l-.062.006-.086.014L104.9,26c-.025.006-.05.013-.076.02s-.053.015-.078.024l-.062.023c-.03.012-.06.024-.089.037l-.025.01c-22.722,10.947-33.077,1.528-37.5-2.495l-.53-.479a2.864,2.864,0,0,0-4.6,1.144,38.858,38.858,0,0,1-4.694,8.782A13.482,13.482,0,0,1,46.214,38.8H43.587a1.539,1.539,0,0,1-1.424-2.125l8.637-21A15.985,15.985,0,0,1,62.26,6.114l9.347-1.991A39.149,39.149,0,0,1,92.572,5.417l15.238,5.27a1.594,1.594,0,0,0,.517.087h19.335V62Z" transform="translate(0 0.001)" fill="#aea6bc"/>
  </g>
</svg>
