<svg xmlns="http://www.w3.org/2000/svg" xmlns:xlink="http://www.w3.org/1999/xlink" width="22.412" height="19.937" viewBox="0 0 22.412 19.937">
  <defs>
    <clipPath id="clip-path">
      <rect id="長方形_772" data-name="長方形 772" width="22.412" height="19.937" fill="#b19d70"/>
    </clipPath>
  </defs>
  <g id="グループ_1513" data-name="グループ 1513" transform="translate(0 0)">
    <g id="グループ_1512" data-name="グループ 1512" transform="translate(0 0)" clip-path="url(#clip-path)">
      <path id="パス_23719" data-name="パス 23719" d="M9.4,9a1.4,1.4,0,1,0,1.4,1.4A1.4,1.4,0,0,0,9.4,9" transform="translate(-2.397 -2.696)" fill="#b19d70"/>
      <path id="パス_23720" data-name="パス 23720" d="M15.4,9a1.4,1.4,0,1,0,1.4,1.4A1.4,1.4,0,0,0,15.4,9" transform="translate(-4.195 -2.696)" fill="#b19d70"/>
      <path id="パス_23721" data-name="パス 23721" d="M21.4,9a1.4,1.4,0,1,0,1.4,1.4A1.4,1.4,0,0,0,21.4,9" transform="translate(-5.993 -2.696)" fill="#b19d70"/>
      <path id="パス_23722" data-name="パス 23722" d="M19.757,0H2.654A2.657,2.657,0,0,0,0,2.654v10.7A2.657,2.657,0,0,0,2.654,16H3.2v2.18a1.751,1.751,0,0,0,2.989,1.238L9.609,16H19.757a2.657,2.657,0,0,0,2.654-2.654V2.654A2.657,2.657,0,0,0,19.757,0m1.254,13.35A1.254,1.254,0,0,1,19.757,14.6H9.609a1.4,1.4,0,0,0-.99.41L5.2,18.432a.343.343,0,0,1-.245.1.35.35,0,0,1-.353-.351V15.857A1.253,1.253,0,0,0,3.349,14.6H2.654A1.254,1.254,0,0,1,1.4,13.35V2.654A1.254,1.254,0,0,1,2.654,1.4h17.1a1.254,1.254,0,0,1,1.254,1.254Z" transform="translate(0 0)" fill="#b19d70"/>
    </g>
  </g>
</svg>
