<svg xmlns="http://www.w3.org/2000/svg" xmlns:xlink="http://www.w3.org/1999/xlink" width="10.413" height="15.186" viewBox="0 0 10.413 15.186">
  <defs>
    <clipPath id="clip-path">
      <rect id="長方形_783" data-name="長方形 783" width="10.413" height="15.186" fill="#cbbfcb"/>
    </clipPath>
  </defs>
  <g id="グループ_1571" data-name="グループ 1571" transform="translate(0 0)">
    <g id="グループ_1570" data-name="グループ 1570" transform="translate(0 0)" clip-path="url(#clip-path)">
      <path id="パス_23733" data-name="パス 23733" d="M9.372.521v3.79L7.657,3.739a1.041,1.041,0,0,0-.8.056l-1.422.711a.519.519,0,0,1-.465,0L3.551,3.8a1.041,1.041,0,0,0-.8-.056l-1.715.572V.521A.521.521,0,0,0,0,.521v4.46a1.042,1.042,0,0,0,.093.431L2.129,9.892,2.6,10.934l1.655,3.641a1.041,1.041,0,0,0,1.9,0L7.81,10.934l.474-1.041L10.32,5.412a1.042,1.042,0,0,0,.093-.431V.521a.521.521,0,1,0-1.041,0m-4.4,13.1-1.221-2.69H6.664l-1.221,2.69a.26.26,0,0,1-.474,0M7.138,9.892H3.275L1.208,5.352,2.878,4.8a.521.521,0,0,1,.4.028l1.466.733a1.042,1.042,0,0,0,.931,0l1.466-.733a.523.523,0,0,1,.4-.028l1.67.557Z" transform="translate(0 0)" fill="#cbbfcb"/>
    </g>
  </g>
</svg>
