<svg id="グループ_2087" data-name="グループ 2087" xmlns="http://www.w3.org/2000/svg" xmlns:xlink="http://www.w3.org/1999/xlink" width="32" height="32" viewBox="0 0 32 32">
  <defs>
    <clipPath id="clip-path">
      <rect id="長方形_874" data-name="長方形 874" width="32" height="32" fill="#aea6bc"/>
    </clipPath>
  </defs>
  <g id="グループ_2086" data-name="グループ 2086" clip-path="url(#clip-path)">
    <path id="パス_24224" data-name="パス 24224" d="M16,0A16,16,0,1,0,32,16,16,16,0,0,0,16,0m0,30A14,14,0,1,1,30,16,14.015,14.015,0,0,1,16,30" fill="#aea6bc"/>
    <path id="パス_24225" data-name="パス 24225" d="M18.1,7.388a5.71,5.71,0,0,0-5.66.876A5.618,5.618,0,0,0,10.495,11.4a1.012,1.012,0,0,0,.975,1.248h0a1.012,1.012,0,0,0,.977-.813,3.645,3.645,0,1,1,6.507,2.944l-2.348,2.348a5.445,5.445,0,0,0-1.466,2.633,1,1,0,1,0,1.953.437,3.455,3.455,0,0,1,.927-1.656l2.4-2.4.092-.106a5.643,5.643,0,0,0,.959-4.788A5.534,5.534,0,0,0,18.1,7.388" fill="#aea6bc"/>
    <path id="パス_24226" data-name="パス 24226" d="M16,25h0a1,1,0,1,0-1-1,1,1,0,0,0,1,1" fill="#aea6bc"/>
  </g>
</svg>
