<svg xmlns="http://www.w3.org/2000/svg" width="25.594" height="21.976" viewBox="0 0 25.594 21.976">
  <path id="パス_24184" data-name="パス 24184" d="M13.065-52.126c-5.829,3.149-8.844,7.839-8.844,14.2,0,4.958,1.943,7.772,5.494,7.772a4.416,4.416,0,0,0,4.556-4.757,4.324,4.324,0,0,0-4.556-4.422,2.748,2.748,0,0,0-.737.067c.067-4.288,2.144-6.968,6.1-9.38Zm14.74,0c-5.829,3.149-8.844,7.839-8.844,14.2,0,4.958,1.943,7.772,5.427,7.772a4.432,4.432,0,0,0,4.623-4.757,4.343,4.343,0,0,0-4.623-4.422,2.279,2.279,0,0,0-.67.067c.067-4.288,2.144-6.968,6.1-9.38Z" transform="translate(29.815 -30.15) rotate(180)" fill="#cbbfcb"/>
</svg>
