<svg xmlns="http://www.w3.org/2000/svg" xmlns:xlink="http://www.w3.org/1999/xlink" width="37.61" height="43.999" viewBox="0 0 37.61 43.999">
  <defs>
    <clipPath id="clip-path">
      <rect id="長方形_864" data-name="長方形 864" width="37.61" height="43.999" fill="#cbbfcb"/>
    </clipPath>
  </defs>
  <g id="グループ_2038" data-name="グループ 2038" transform="translate(0 0)">
    <g id="グループ_2037" data-name="グループ 2037" transform="translate(0 0)" clip-path="url(#clip-path)">
      <path id="パス_24221" data-name="パス 24221" d="M35.688,13.326a5.519,5.519,0,0,0-5.472-5.073H25.679V7.181a7.09,7.09,0,0,0-6.2-7.149,6.886,6.886,0,0,0-7.548,6.847V8.253H7.394a5.519,5.519,0,0,0-5.472,5.073L.011,38.074v.055A5.482,5.482,0,0,0,5.5,44H32.114A5.482,5.482,0,0,0,37.6,38.129v-.055ZM14.681,6.878A4.129,4.129,0,0,1,19.63,2.836a4.243,4.243,0,0,1,3.3,4.221v1.2H14.681ZM4.658,13.546A2.745,2.745,0,0,1,7.394,11h4.537v4.125a1.375,1.375,0,1,0,2.75,0V11H22.93v4.125a1.375,1.375,0,1,0,2.75,0V11h4.537a2.745,2.745,0,0,1,2.736,2.543L34.437,33H3.173Zm27.456,27.7H5.5a2.737,2.737,0,0,1-2.75-2.736l.014-.22.192-2.543h31.7l.192,2.543.014.22a2.737,2.737,0,0,1-2.75,2.736" transform="translate(0 0)" fill="#cbbfcb"/>
    </g>
  </g>
</svg>
