<svg xmlns="http://www.w3.org/2000/svg" width="42.619" height="50" viewBox="0 0 42.619 50">
  <g id="グループ_2113" data-name="グループ 2113" transform="translate(0)">
    <g id="グループ_1929" data-name="グループ 1929">
      <path id="パス_24204" data-name="パス 24204" d="M118.02,2.505V16.981h3.263V3.263H144.29L136.979,8.21a3.007,3.007,0,0,0-1.322,2.491V38.654H121.283V27.547H118.02V39.412a2.505,2.505,0,0,0,2.505,2.505h15.132v6.927a1.157,1.157,0,0,0,1.8.958l10.179-6.887a3.352,3.352,0,0,0,1.474-2.776V2.42A2.42,2.42,0,0,0,146.694,0H120.525a2.505,2.505,0,0,0-2.505,2.505" transform="translate(-106.495)" fill="#cbbfcb"/>
      <path id="パス_24205" data-name="パス 24205" d="M18.639,173.475a.462.462,0,0,0,.761.353l6.331-5.357a1.43,1.43,0,0,0,0-2.183L19.4,160.93a.462.462,0,0,0-.761.353v3.261H1.43A1.43,1.43,0,0,0,0,165.974v2.811a1.43,1.43,0,0,0,1.43,1.43h17.21v3.26Z" transform="translate(26.238 189.643) rotate(180)" fill="#cbbfcb"/>
    </g>
  </g>
</svg>
