<svg xmlns="http://www.w3.org/2000/svg" xmlns:xlink="http://www.w3.org/1999/xlink" width="34.992" height="31.938" viewBox="0 0 34.992 31.938">
  <defs>
    <clipPath id="clip-path">
      <rect id="長方形_850" data-name="長方形 850" width="34.992" height="31.938" fill="#fff"/>
    </clipPath>
  </defs>
  <g id="グループ_1931" data-name="グループ 1931" transform="translate(0 0)">
    <g id="グループ_1930" data-name="グループ 1930" transform="translate(0 0)" clip-path="url(#clip-path)">
      <path id="パス_24206" data-name="パス 24206" d="M13.447,20.606h0a1.334,1.334,0,1,0-1.334-1.334,1.335,1.335,0,0,0,1.334,1.334" transform="translate(4.048 5.995)" fill="#fff"/>
      <path id="パス_24207" data-name="パス 24207" d="M12.113,9.272v8.005a1.334,1.334,0,0,0,2.668,0V9.272a1.334,1.334,0,1,0-2.668,0" transform="translate(4.048 2.653)" fill="#fff"/>
      <path id="パス_24208" data-name="パス 24208" d="M34.281,23.953,22.13,2.69a5.336,5.336,0,0,0-9.267,0L.711,23.953a5.338,5.338,0,0,0,4.634,7.985h24.3a5.336,5.336,0,0,0,4.634-7.985m-4.634,5.317H5.345a2.668,2.668,0,0,1-2.316-3.992L15.179,4.013a2.668,2.668,0,0,1,4.634,0l12.15,21.264a2.668,2.668,0,0,1-2.316,3.992" transform="translate(0 0)" fill="#fff"/>
    </g>
  </g>
</svg>
